# Blender v2.73 (sub 0) OBJ File: 'spiderroms.blend'
# www.blender.org
mtllib englobing.mtl
o foo.014
v 1.632187 -0.295162 1.064335
v 1.377019 -1.048144 0.369605
v 1.651078 -0.863073 0.610476
v 1.288626 -0.786346 1.116800
v 1.505272 -0.846936 0.878235
v 1.833313 -0.323976 0.771801
v 1.560638 0.271446 1.087341
v 1.362321 0.164026 1.271892
v 1.824890 0.207822 0.746231
v 1.347502 -0.338030 1.274887
v 1.312652 0.576564 1.128075
v 1.794950 -0.197598 0.597265
v 1.688581 0.590169 0.680089
v 1.576054 0.574310 0.906021
v 1.161364 -0.836113 1.075718
v 0.964787 -1.084589 0.787131
v 1.222895 0.107407 1.238127
vn 0.595800 -0.012800 0.803000
vn 0.349800 -0.898000 0.267000
vn 0.977500 0.005300 -0.211000
vn 0.374800 -0.890500 0.257800
vn 0.821700 0.368200 0.435100
vn 0.825200 0.040200 0.563400
vn 0.664500 0.053700 0.745300
vn 0.781900 0.290400 0.551600
vn 0.637400 -0.373900 0.673800
vn 0.592200 -0.336000 0.732400
vn 0.286900 -0.833500 0.472200
vn 0.595400 0.390200 0.702300
vn -0.979600 0.196900 0.040300
vn -0.182200 -0.305600 0.934600
vn 0.792700 -0.404500 0.456100
vn 0.752100 -0.359300 0.552500
vn 0.114600 -0.790100 0.602200
vn -0.240300 0.012900 0.970600
vn -0.591000 -0.099300 0.800600
vn -0.805300 -0.049200 0.590900
vn 0.538500 0.334500 0.773400
vn -0.739500 0.280500 -0.612000
vn 0.115000 0.985300 0.126500
vn 0.248900 0.134400 -0.959200
vn -0.698500 0.259200 -0.667000
vn 0.771100 0.168700 -0.614000
vn 0.795100 0.076000 0.601800
vn -0.330300 0.275000 0.902900
vn 0.712200 -0.167500 -0.681700
vn 0.914400 -0.204600 -0.349200
usemtl None
s off
f 1//1 8//1 10//1
f 16//2 2//2 5//2
f 6//3 12//3 9//3
f 3//4 5//4 2//4
f 13//5 14//5 9//5
f 9//6 1//6 6//6
f 1//7 7//7 8//7
f 14//8 7//8 9//8
f 1//9 4//9 5//9
f 1//10 10//10 4//10
f 5//11 4//11 16//11
f 14//12 11//12 7//12
f 11//13 16//13 17//13
f 4//14 10//14 15//14
f 5//15 3//15 6//15
f 5//16 6//16 1//16
f 4//17 15//17 16//17
f 17//18 10//18 8//18
f 17//19 15//19 10//19
f 17//20 16//20 15//20
f 7//21 11//21 8//21
f 11//22 13//22 16//22
f 11//23 14//23 13//23
f 13//24 12//24 2//24
f 13//25 2//25 16//25
f 12//26 13//26 9//26
f 7//27 1//27 9//27
f 8//28 11//28 17//28
f 12//29 3//29 2//29
f 3//30 12//30 6//30
o foo.013
v 0.903020 -0.802898 1.278854
v 0.219314 0.348217 1.461151
v 0.890240 0.002922 1.517213
v 0.903132 -0.459480 1.445419
v 0.470168 0.033050 1.564101
v 0.261570 -1.055766 0.927686
v 0.267259 0.585509 1.355336
v 0.843899 -1.037105 0.903243
v 0.654511 -1.001593 1.117989
v 0.943822 0.347403 1.409719
v 0.273350 -0.845774 1.313866
v 0.200290 -0.225917 1.530957
v 0.557758 0.574874 1.403431
v 0.843229 0.620817 1.298608
v 0.577349 -0.604286 1.463873
v 0.129503 -0.354939 1.356302
vn -0.048600 0.252000 -0.966500
vn 0.359800 -0.816100 0.452200
vn 0.125600 0.263300 0.956500
vn 0.023900 -0.151400 0.988200
vn -0.111000 -0.871700 0.477400
vn 0.862800 0.117600 -0.491700
vn 0.989400 -0.018700 -0.144100
vn 0.121800 -0.149000 0.981300
vn -0.023200 0.937400 0.347600
vn -0.109400 0.230500 -0.966900
vn -0.132600 0.425900 0.895000
vn 0.930400 -0.030800 0.365200
vn 0.237900 -0.423900 0.873900
vn -0.238200 0.125000 0.963100
vn 0.994500 -0.046000 0.094100
vn 0.085100 -0.600900 0.794800
vn -0.982000 0.143700 -0.122700
vn -0.870300 0.127000 -0.475800
vn -0.941600 0.071200 0.329000
vn 0.100100 -0.138100 0.985300
vn 0.086900 -0.690300 0.718300
vn -0.799600 -0.280300 0.531100
vn -0.938200 -0.291100 0.186900
vn 0.145900 0.273900 0.950600
vn 0.245900 0.441200 0.863100
vn -0.030100 0.288600 0.957000
vn -0.181300 -0.344000 0.921300
vn 0.039700 -0.979600 0.197000
usemtl None
s off
f 23//31 24//31 25//31
f 26//32 25//32 18//32
f 22//33 20//33 30//33
f 22//34 29//34 32//34
f 26//35 28//35 23//35
f 25//36 31//36 27//36
f 25//37 27//37 18//37
f 32//38 21//38 20//38
f 31//39 24//39 30//39
f 31//40 25//40 24//40
f 30//41 24//41 19//41
f 20//42 21//42 27//42
f 21//43 32//43 18//43
f 29//44 22//44 19//44
f 27//45 21//45 18//45
f 18//46 32//46 28//46
f 24//47 33//47 19//47
f 24//48 23//48 33//48
f 33//49 29//49 19//49
f 20//50 22//50 32//50
f 18//51 28//51 26//51
f 28//52 29//52 33//52
f 28//53 33//53 23//53
f 20//54 27//54 30//54
f 31//55 30//55 27//55
f 19//56 22//56 30//56
f 29//57 28//57 32//57
f 25//58 26//58 23//58
o foo.012
v -0.645435 0.603076 0.792820
v -0.619370 0.246166 1.045105
v -0.538266 -0.919597 0.702105
v -0.186797 -0.838306 1.144539
v -0.244640 -0.367012 1.335275
v -0.539221 -0.757176 0.575441
v -0.727064 -0.519982 0.838761
v 0.147192 -1.048365 0.861866
v 0.017416 -1.002781 0.998294
v -0.190893 0.083451 1.355659
v -0.289579 0.217264 1.316603
v -0.180437 0.632632 1.172697
v -0.784865 -0.043899 0.894230
v -0.515003 -0.651552 1.019775
v -0.545135 -0.209499 1.159367
v -0.230924 -1.080778 0.455314
v -0.760501 -0.183421 0.735590
vn 0.378100 -0.307000 0.873300
vn -0.909000 -0.259600 -0.326000
vn -0.843000 -0.232400 -0.485000
vn 0.669600 -0.113100 0.734100
vn -0.720000 -0.503500 0.477600
vn -0.780700 -0.165000 0.602800
vn -0.509700 -0.011700 0.860300
vn -0.584900 0.439200 0.681800
vn -0.714300 -0.254500 0.651900
vn -0.856300 0.254900 0.449100
vn -0.589900 -0.279400 0.757600
vn -0.628100 0.091400 0.772700
vn -0.508400 -0.375900 0.774700
vn -0.561800 0.398700 0.724800
vn 0.705000 -0.096000 0.702700
vn -0.945200 0.159000 -0.285000
vn -0.156800 0.209000 -0.965300
vn -0.690800 -0.447200 -0.568200
vn -0.560400 -0.612300 0.557700
vn -0.355400 -0.827600 0.434400
vn -0.276800 -0.925200 0.259500
vn -0.992100 -0.114400 -0.051700
vn 0.918800 0.108900 0.379400
vn 0.051700 0.314800 0.947800
vn 0.592900 0.296100 -0.748800
vn 0.696800 0.259500 -0.668700
vn -0.131300 -0.971100 0.199500
vn -0.366100 0.001600 0.930600
vn -0.723400 0.054700 0.688300
vn -0.307300 0.113700 -0.944800
usemtl None
s off
f 37//59 42//59 38//59
f 36//60 50//60 39//60
f 36//61 40//61 50//61
f 38//62 42//62 43//62
f 36//63 47//63 40//63
f 46//64 40//64 48//64
f 48//65 38//65 44//65
f 34//66 35//66 45//66
f 48//67 40//67 47//67
f 34//68 46//68 35//68
f 38//69 48//69 47//69
f 44//70 35//70 48//70
f 38//71 47//71 37//71
f 44//72 45//72 35//72
f 41//73 43//73 42//73
f 34//74 50//74 46//74
f 39//75 50//75 49//75
f 39//76 49//76 36//76
f 37//77 47//77 36//77
f 42//78 37//78 36//78
f 42//79 36//79 49//79
f 50//80 40//80 46//80
f 43//81 41//81 45//81
f 44//82 43//82 45//82
f 45//83 49//83 34//83
f 45//84 41//84 49//84
f 41//85 42//85 49//85
f 44//86 38//86 43//86
f 35//87 46//87 48//87
f 50//88 34//88 49//88
o foo.010
v -0.863522 -0.092816 -0.764546
v -0.491758 0.643596 -0.933552
v -0.626808 -0.387253 -1.047962
v -0.736175 -0.717502 -0.676906
v -0.384325 -0.099338 -1.287413
v -0.241868 -0.247279 -1.253299
v -0.195962 -0.904631 -1.042804
v -0.304677 0.396539 -1.234725
v -0.003665 -1.060483 -0.817337
v -0.419086 -0.912819 -0.881027
v -0.514411 -0.969480 -0.510197
v -0.795172 -0.107422 -0.568769
v -0.636818 0.197218 -1.035431
v -0.762560 0.462612 -0.694916
v -0.284113 -1.073872 -0.396302
v -0.327024 -0.613005 -1.195157
vn -0.849900 0.214800 -0.481200
vn 0.940200 0.101100 -0.325100
vn -0.662700 -0.451700 -0.597300
vn -0.253500 -0.883300 -0.394400
vn -0.852900 -0.239000 -0.464100
vn -0.582600 0.177800 -0.793100
vn -0.629600 0.361600 -0.687700
vn -0.643300 -0.450800 -0.618800
vn -0.741000 0.368900 -0.561100
vn -0.625700 -0.730900 -0.272500
vn 0.798500 0.265600 0.540300
vn 0.901400 0.280700 0.329700
vn -0.933400 0.127600 0.335400
vn 0.058900 -0.170100 -0.983700
vn -0.295300 -0.928300 -0.226200
vn -0.767200 0.000600 -0.641400
vn 0.286700 0.055600 -0.956400
vn -0.475700 -0.095500 0.874400
vn 0.501600 0.312900 0.806500
vn 0.071300 0.211600 0.974700
vn -0.937300 -0.146700 0.316300
vn -0.470500 -0.565400 -0.677500
vn -0.704500 0.003100 -0.709700
vn -0.309900 -0.924700 -0.221000
vn -0.717800 -0.188200 0.670300
vn -0.552200 -0.206700 -0.807700
vn 0.563400 -0.256100 -0.785500
vn 0.762400 0.004600 -0.647100
usemtl None
s off
f 51//89 64//89 63//89
f 56//90 58//90 59//90
f 60//91 54//91 53//91
f 59//92 60//92 57//92
f 51//93 53//93 54//93
f 58//94 55//94 63//94
f 52//95 58//95 63//95
f 53//96 66//96 60//96
f 52//97 63//97 64//97
f 61//98 54//98 60//98
f 52//99 65//99 59//99
f 52//100 59//100 58//100
f 51//101 62//101 64//101
f 66//102 55//102 56//102
f 59//103 65//103 60//103
f 53//104 51//104 63//104
f 58//105 56//105 55//105
f 61//106 65//106 62//106
f 65//107 52//107 64//107
f 65//108 64//108 62//108
f 51//109 54//109 62//109
f 57//110 60//110 66//110
f 55//111 53//111 63//111
f 65//112 61//112 60//112
f 62//113 54//113 61//113
f 66//114 53//114 55//114
f 56//115 59//115 66//115
f 57//116 66//116 59//116
o foo.008
v 0.783225 -0.309227 -1.521526
v 0.453538 -1.038023 -1.055206
v 0.095958 -0.891974 -1.206232
v 0.470494 -0.379162 -1.536679
v 0.751468 -0.880314 -1.272605
v 0.050440 0.231287 -1.449251
v 0.161279 0.608942 -1.323781
v 0.168810 -1.050034 -0.849418
v 0.088061 -0.378308 -1.468344
v 0.387325 -0.742813 -1.385834
v 0.416727 0.092432 -1.553508
v 0.529163 0.372154 -1.488457
v 0.808404 0.260375 -1.472330
v 0.852339 -0.294797 -1.381081
v 0.668539 -1.072710 -0.887906
v 0.717477 0.574288 -1.379172
vn -0.894400 0.119200 0.431200
vn -0.979400 0.004000 0.201700
vn 0.897300 -0.001500 -0.441400
vn -0.298900 -0.437400 -0.848100
vn -0.055200 -0.989400 -0.134200
vn 0.112400 0.281000 0.953100
vn -0.219900 -0.907800 -0.357200
vn -0.165800 -0.345300 -0.923700
vn 0.126800 0.176000 -0.976200
vn 0.174700 -0.895200 -0.410100
vn 0.185000 0.328400 -0.926200
vn -0.180200 0.357400 -0.916400
vn 0.054900 -0.029400 -0.998100
vn -0.269000 0.013600 -0.963100
vn -0.994600 -0.058700 -0.085100
vn -0.053400 0.512900 -0.856800
vn -0.050100 -0.774600 -0.630500
vn -0.057200 -0.720500 -0.691100
vn -0.175800 -0.055100 -0.982900
vn 0.882700 -0.228200 -0.410900
vn 0.170400 0.077300 -0.982300
vn -0.161100 0.284500 -0.945000
vn 0.128600 -0.404900 -0.905300
vn 0.133800 -0.402200 -0.905700
vn 0.820100 0.155400 0.550800
vn 0.086200 0.274300 0.957800
vn 0.875400 0.114100 0.469800
vn 0.979800 -0.142900 0.139700
usemtl None
s off
f 72//117 74//117 73//117
f 72//118 69//118 74//118
f 67//119 79//119 80//119
f 75//120 76//120 69//120
f 81//121 74//121 68//121
f 81//122 82//122 73//122
f 69//123 68//123 74//123
f 70//124 76//124 75//124
f 77//125 78//125 79//125
f 81//126 68//126 71//126
f 78//127 82//127 79//127
f 78//128 72//128 73//128
f 77//129 67//129 70//129
f 72//130 77//130 75//130
f 72//131 75//131 69//131
f 78//132 73//132 82//132
f 69//133 71//133 68//133
f 69//134 76//134 71//134
f 70//135 75//135 77//135
f 71//136 67//136 80//136
f 77//137 79//137 67//137
f 78//138 77//138 72//138
f 70//139 71//139 76//139
f 71//140 70//140 67//140
f 80//141 79//141 81//141
f 81//142 73//142 74//142
f 82//143 81//143 79//143
f 81//144 71//144 80//144
o foo.007
v 1.744032 0.305748 -0.835413
v 1.111232 -0.851685 -1.146575
v 1.430634 -0.598612 -1.136009
v 1.616838 0.594558 -0.822050
v 1.187212 0.600420 -1.204731
v 1.562206 -0.879943 -0.702128
v 1.261555 -0.946690 -0.961853
v 1.785926 -0.193951 -0.856023
v 1.637093 -0.191776 -1.063904
v 1.245998 -0.305275 -1.343133
v 1.312199 -1.061425 -0.510216
v 1.654586 -0.526013 -0.643356
v 1.661884 -0.659632 -0.836081
v 1.206244 0.221594 -1.336076
v 1.567471 0.116385 -1.129490
v 0.960371 -1.079113 -0.715455
v 1.040415 -0.465088 -1.223404
v 0.886672 -1.001047 -0.936948
vn 0.696200 0.336000 -0.634300
vn 0.423200 -0.865700 -0.267400
vn 0.338400 -0.391300 -0.855800
vn 0.948000 -0.243700 0.204900
vn 0.931500 -0.281400 0.230400
vn 0.506700 0.049800 -0.860700
vn 0.471600 -0.567000 -0.675400
vn -0.497400 0.248000 0.831300
vn -0.488400 -0.025200 -0.872200
vn 0.537900 0.300100 -0.787700
vn -0.340300 -0.242900 -0.908400
vn -0.561400 -0.259000 -0.786000
vn 0.089800 -0.854100 -0.512300
vn 0.789200 -0.234500 -0.567500
vn 0.737200 -0.263800 -0.622100
vn 0.604700 -0.168900 -0.778300
vn -0.969500 0.214600 -0.118700
vn 0.588100 -0.039100 -0.807800
vn -0.633500 0.294100 0.715700
vn -0.895700 0.231600 0.379600
vn 0.596400 -0.596400 -0.537100
vn 0.200500 -0.943900 -0.262300
vn 0.110100 -0.925400 -0.362800
vn 0.811900 0.059900 -0.580700
vn 0.589300 -0.571800 -0.570700
vn -0.903000 0.099600 -0.418000
vn 0.706600 -0.291500 0.644800
vn 0.826400 0.092200 -0.555500
vn 0.032500 0.221500 0.974600
vn 0.817200 0.044800 0.574600
vn 0.349500 0.110900 0.930300
vn 0.618400 0.378800 -0.688500
usemtl None
s off
f 86//145 83//145 97//145
f 88//146 93//146 89//146
f 84//147 92//147 85//147
f 94//148 95//148 90//148
f 94//149 88//149 95//149
f 96//150 97//150 92//150
f 89//151 84//151 85//151
f 93//152 86//152 98//152
f 96//153 92//153 99//153
f 96//154 87//154 97//154
f 99//155 92//155 84//155
f 99//156 84//156 100//156
f 89//157 100//157 84//157
f 91//158 90//158 95//158
f 91//159 95//159 85//159
f 85//160 92//160 91//160
f 99//161 100//161 96//161
f 91//162 92//162 97//162
f 98//163 86//163 87//163
f 98//164 87//164 100//164
f 95//165 88//165 89//165
f 98//166 89//166 93//166
f 98//167 100//167 89//167
f 91//168 97//168 90//168
f 89//169 85//169 95//169
f 87//170 96//170 100//170
f 88//171 94//171 93//171
f 90//172 97//172 83//172
f 94//173 83//173 93//173
f 94//174 90//174 83//174
f 83//175 86//175 93//175
f 97//176 87//176 86//176
