# Blender v2.73 (sub 0) OBJ File: 'handtour.blend'
# www.blender.org
mtllib englobedhand.mtl
o RootHead_Cube.002_RootHead_Cube.000
v 0.197709 -0.876236 0.183663
v 0.197709 -0.876236 -0.369323
v 1.083053 -0.876236 -0.369323
v 0.197709 0.589374 0.183663
v 0.197709 0.589374 -0.369323
v 1.083053 0.589374 0.183663
v 1.083053 0.589374 -0.369323
v 1.083053 -0.876236 0.183663
vn 0.000000 -1.000000 0.000000
vn -1.000000 -0.000000 0.000000
vn 0.000000 1.000000 0.000000
vn 1.000000 0.000000 0.000000
vn 0.000000 0.000000 -1.000000
vn 0.000000 -0.000000 1.000000
usemtl wire_176026026.000
s off
f 1//1 2//1 3//1
f 4//2 5//2 2//2
f 6//3 7//3 5//3
f 8//4 3//4 7//4
f 3//5 2//5 5//5
f 4//6 1//6 8//6
f 8//1 1//1 3//1
f 1//2 4//2 2//2
f 4//3 6//3 5//3
f 6//4 8//4 7//4
f 7//5 3//5 5//5
f 6//6 4//6 8//6
