# Blender v2.73 (sub 0) OBJ File: ''
# www.blender.org
mtllib chair.mtl
o Plane
v 2.633492 -0.000000 1.507933
v 2.633492 0.000000 -1.507933
v -2.633492 0.000000 -1.507933
v -2.633492 -0.000000 1.507933
vn 0.000000 1.000000 0.000000
usemtl None
s off
f 1//1 2//1 3//1
f 4//1 1//1 3//1
o Cube.002_Cube.003
v 0.039425 0.545657 0.500000
v -0.396284 0.545657 0.500000
v -0.396284 0.545657 -0.500000
v -0.396284 0.454343 -0.500000
v -0.396284 0.454343 0.500000
v 0.039425 0.454343 0.500000
v 0.039425 0.545657 -0.500000
v 0.039425 0.454343 -0.500000
vn 0.000000 -1.000000 0.000000
vn 0.000000 1.000000 0.000000
vn -1.000000 0.000000 0.000000
vn 0.000000 0.000000 -1.000000
vn 1.000000 0.000000 0.000000
vn 0.000000 0.000000 1.000000
usemtl Material.003
s off
f 5//2 6//2 7//2
f 8//3 9//3 10//3
f 11//4 12//4 10//4
f 5//5 10//5 9//5
f 9//6 8//6 7//6
f 12//7 11//7 7//7
f 11//2 5//2 7//2
f 12//3 8//3 10//3
f 5//4 11//4 10//4
f 6//5 5//5 9//5
f 6//6 9//6 7//6
f 8//7 12//7 7//7
o Cube.002_Cube.000
v 0.039425 0.460194 0.500000
v -0.396284 0.460194 0.500000
v -0.396284 0.460194 -0.500000
v -0.396284 -0.058848 -0.500000
v -0.396284 -0.058848 0.500000
v 0.039425 -0.058848 0.500000
v 0.039425 0.460194 -0.500000
v 0.039425 -0.058848 -0.500000
vn 0.000000 -1.000000 -0.000000
vn 0.000000 1.000000 0.000000
vn -1.000000 0.000000 0.000000
vn 0.000000 0.000000 -1.000000
vn 1.000000 0.000000 0.000000
vn 0.000000 -0.000000 1.000000
usemtl Material.005
s off
f 13//8 14//8 15//8
f 16//9 17//9 18//9
f 19//10 20//10 18//10
f 13//11 18//11 17//11
f 17//12 16//12 15//12
f 20//13 19//13 15//13
f 19//8 13//8 15//8
f 20//9 16//9 18//9
f 13//10 19//10 18//10
f 14//11 13//11 17//11
f 14//12 17//12 15//12
f 16//13 20//13 15//13
o Cube.000
v 1.200419 0.992815 -0.500000
v 1.200419 0.992815 0.500000
v 0.246028 0.992815 0.500000
v 1.200419 1.102276 -0.500000
v 0.246028 1.102276 -0.500000
v 0.246027 1.102276 0.500000
v 1.200419 1.102276 0.500000
v 0.246028 0.992815 -0.500000
vn 0.000000 -1.000000 0.000000
vn 0.000000 1.000000 0.000000
vn 1.000000 0.000000 0.000000
vn 0.000000 0.000000 1.000000
vn -1.000000 0.000000 -0.000000
vn 0.000000 0.000000 -1.000000
usemtl Material.000
s off
f 21//14 22//14 23//14
f 24//15 25//15 26//15
f 21//16 24//16 27//16
f 22//17 27//17 26//17
f 26//18 25//18 28//18
f 24//19 21//19 28//19
f 28//14 21//14 23//14
f 27//15 24//15 26//15
f 22//16 21//16 27//16
f 23//17 22//17 26//17
f 23//18 26//18 28//18
f 25//19 24//19 28//19
o Cube.002_Cube.001_Cube.002_Cube.002
v 0.595982 0.852673 0.634962
v 0.160273 0.852673 0.634962
v 0.160273 0.852673 0.365922
v 0.160273 0.761359 0.365922
v 0.160273 0.761359 0.634962
v 0.595982 0.761359 0.634962
v 0.595982 0.852673 0.365922
v 0.595982 0.761359 0.365922
vn 0.000000 -1.000000 0.000000
vn 0.000000 1.000000 0.000000
vn -1.000000 0.000000 0.000000
vn 0.000000 0.000000 -1.000000
vn 1.000000 0.000000 0.000000
vn 0.000000 0.000000 1.000000
usemtl Material.002
s off
f 29//20 30//20 31//20
f 32//21 33//21 34//21
f 35//22 36//22 34//22
f 29//23 34//23 33//23
f 33//24 32//24 31//24
f 36//25 35//25 31//25
f 35//20 29//20 31//20
f 36//21 32//21 34//21
f 29//22 35//22 34//22
f 30//23 29//23 33//23
f 30//24 33//24 31//24
f 32//25 36//25 31//25
