# Blender v2.73 (sub 0) OBJ File: 'spider_detached.blend'
# www.blender.org
mtllib BackLeftEffector.mtl
o BackLeftEffector_Cube.024
v -0.066198 -0.087357 -0.022720
v -0.107171 -0.021327 -0.022720
v -0.035294 0.023274 -0.022720
v 0.005678 -0.042757 -0.022720
v -0.066198 -0.087357 0.007280
v -0.107171 -0.021327 0.007280
v -0.035294 0.023274 0.007280
v 0.005678 -0.042757 0.007280
vn -0.849700 -0.527300 -0.000000
vn -0.527300 0.849700 -0.000000
vn 0.849700 0.527300 0.000000
vn 0.527300 -0.849700 0.000000
vn 0.000000 0.000000 -1.000000
vn -0.000000 -0.000000 1.000000
usemtl None
s off
f 6//1 2//1 1//1
f 7//2 3//2 2//2
f 8//3 4//3 3//3
f 5//4 1//4 4//4
f 2//5 3//5 4//5
f 7//6 6//6 5//6
f 5//1 6//1 1//1
f 6//2 7//2 2//2
f 7//3 8//3 3//3
f 8//4 5//4 4//4
f 1//5 2//5 4//5
f 8//6 7//6 5//6
