# Blender v2.73 (sub 0) OBJ File: 'spider_detached.blend'
# www.blender.org
mtllib FrontLeftLimb.mtl
o FrontLeftLimb_Cube.026
v -0.277616 0.163553 -0.296728
v -0.206899 0.215550 -0.321209
v 0.011968 0.031939 -0.078970
v -0.058750 -0.020059 -0.054489
v -0.310058 0.253616 -0.199149
v -0.239341 0.305614 -0.223630
v -0.020475 0.122002 0.018609
v -0.091192 0.070005 0.043090
vn -0.584300 0.490200 -0.646700
vn 0.776000 0.570600 -0.268700
vn 0.584300 -0.490200 0.646700
vn -0.776000 -0.570600 0.268600
vn 0.237300 -0.658900 -0.713800
vn -0.237300 0.658900 0.713800
usemtl None
s off
f 6//1 2//1 1//1
f 7//2 3//2 2//2
f 8//3 4//3 3//3
f 5//4 1//4 4//4
f 2//5 3//5 4//5
f 7//6 6//6 5//6
f 5//1 6//1 1//1
f 6//2 7//2 2//2
f 7//3 8//3 3//3
f 8//4 5//4 4//4
f 1//5 2//5 4//5
f 8//6 7//6 5//6
