# Blender v2.73 (sub 0) OBJ File: 'spider_detached.blend'
# www.blender.org
mtllib FrontLeftLowerLimb.mtl
o FrontLeftLowerLimb_Cube.027
v -0.362088 0.237926 -0.193439
v -0.301367 0.304780 -0.204170
v -0.031315 0.077152 -0.094225
v -0.092036 0.010298 -0.083494
v -0.374279 0.261710 -0.114252
v -0.313558 0.328564 -0.124984
v -0.043507 0.100936 -0.015039
v -0.104227 0.034082 -0.004307
vn -0.730100 0.615400 -0.297200
vn 0.667600 0.735100 -0.118000
vn 0.730100 -0.615400 0.297200
vn -0.667600 -0.735100 0.118000
vn 0.145900 -0.284600 -0.947500
vn -0.145900 0.284600 0.947500
usemtl None
s off
f 6//1 2//1 1//1
f 7//2 3//2 2//2
f 8//3 4//3 3//3
f 5//4 1//4 4//4
f 2//5 3//5 4//5
f 8//6 7//6 6//6
f 5//1 6//1 1//1
f 6//2 7//2 2//2
f 7//3 8//3 3//3
f 8//4 5//4 4//4
f 1//5 2//5 4//5
f 5//6 8//6 6//6
