# Blender v2.73 (sub 0) OBJ File: 'spider_detached.blend'
# www.blender.org
mtllib MiddleLeftUpperLimb.mtl
o MiddleLeftUpperLimb_Cube.017
v -0.435168 -0.008199 0.097331
v -0.426255 0.081072 0.113302
v -0.090195 0.077102 -0.052055
v -0.099108 -0.012170 -0.068026
v -0.376304 -0.035597 0.217622
v -0.367391 0.053675 0.233593
v -0.031330 0.049705 0.068236
v -0.040243 -0.039567 0.052265
vn -0.897200 0.010600 0.441500
vn 0.097800 0.979700 0.175300
vn 0.897200 -0.010600 -0.441500
vn -0.097800 -0.979700 -0.175300
vn -0.430600 0.200400 -0.880000
vn 0.430600 -0.200400 0.880000
usemtl None
s off
f 6//1 2//1 1//1
f 7//2 3//2 2//2
f 8//3 4//3 3//3
f 5//4 1//4 4//4
f 2//5 3//5 4//5
f 7//6 6//6 5//6
f 5//1 6//1 1//1
f 6//2 7//2 2//2
f 7//3 8//3 3//3
f 8//4 5//4 4//4
f 1//5 2//5 4//5
f 8//6 7//6 5//6
