# Blender v2.73 (sub 0) OBJ File: 'spider_detached.blend'
# www.blender.org
mtllib MiddleLeftLimb.mtl
o MiddleLeftLimb_Cube.018
v -0.350644 -0.083001 -0.208417
v -0.291024 -0.089717 -0.276852
v -0.008341 -0.082818 -0.031260
v -0.067961 -0.076102 0.037176
v -0.347175 0.017164 -0.215224
v -0.287555 0.010448 -0.283660
v -0.004872 0.017347 -0.038067
v -0.064492 0.024063 0.030368
vn -0.754800 -0.018400 -0.655700
vn 0.655100 -0.073800 -0.751900
vn 0.754800 0.018400 0.655700
vn -0.655100 0.073800 0.751900
vn -0.034500 -0.997100 0.067800
vn 0.034500 0.997100 -0.067800
usemtl None
s off
f 5//1 6//1 2//1
f 7//2 3//2 2//2
f 8//3 4//3 3//3
f 5//4 1//4 4//4
f 2//5 3//5 4//5
f 8//6 7//6 6//6
f 1//1 5//1 2//1
f 6//2 7//2 2//2
f 7//3 8//3 3//3
f 8//4 5//4 4//4
f 1//5 2//5 4//5
f 5//6 8//6 6//6
