# Blender v2.73 (sub 0) OBJ File: 'spider_detached.blend'
# www.blender.org
mtllib MiddleLeftUpperLimb.mtl
o MiddleLeftUpperLimb_Cube.017
v -0.428660 -0.064065 0.127112
v -0.427769 0.027054 0.127815
v -0.090995 0.025022 -0.036118
v -0.091886 -0.066097 -0.036821
v -0.368844 -0.065598 0.250015
v -0.367952 0.025521 0.250718
v -0.031178 0.023489 0.086785
v -0.032069 -0.067630 0.086082
vn -0.899100 0.005400 0.437700
vn 0.009800 0.999900 0.007700
vn 0.899100 -0.005400 -0.437700
vn -0.009800 -0.999900 -0.007700
vn -0.437600 0.011200 -0.899100
vn 0.437600 -0.011200 0.899100
usemtl None
s off
f 6//1 2//1 1//1
f 7//2 3//2 2//2
f 7//3 8//3 4//3
f 5//4 1//4 4//4
f 2//5 3//5 4//5
f 7//6 6//6 5//6
f 5//1 6//1 1//1
f 6//2 7//2 2//2
f 3//3 7//3 4//3
f 8//4 5//4 4//4
f 1//5 2//5 4//5
f 8//6 7//6 5//6
