mtllib RightFoot.mtl
o RightFoot
v 0.0184106 -0.414646 0.0192955
v 0.0224016 -0.365072 0.0300956
v -0.0405461 -0.364669 0.00756936
v -0.0311714 -0.414329 0.00155218
v 0.0337873 -0.0199408 -0.0166212
v 0.043162 -0.0695999 -0.0226383
v -0.0197857 -0.0691974 -0.0451646
v -0.0157947 -0.0196238 -0.0343645
v 0.0161274 -0.00611657 -0.00782531
v -0.00756933 -0.00596506 -0.0163053
v -0.0160494 -0.00683787 0.00737579
v 0.00764736 -0.00698938 0.0158558
v 0.0361539 -0.41282 -0.030254
v 0.0449278 -0.362753 -0.0328106
v -0.00503149 -0.42728 -0.0309248
v 0.0186652 -0.427431 -0.0224448
v 0.0101852 -0.428304 0.00123637
v -0.0135115 -0.428153 -0.00724367
v -0.042312 -0.0715159 0.0177417
v -0.033538 -0.02145 0.0151849
v 0.0206357 -0.0719184 0.0402679
v 0.016044 -0.0217671 0.0329282
v -0.0134282 -0.412503 -0.0479972
v -0.0180199 -0.362351 -0.0553369
v -0.0427624 -0.218123 0.0132854
v 0.0221492 -0.218538 0.0365145
v -0.0195333 -0.215732 -0.0515834
v 0.0453782 -0.216147 -0.0283544
vn -0.332709 -0.175044 0.926601
vn 0.332709 0.175044 -0.926601
vn -0.0060199 0.99938 0.0346781
vn 0.932944 -0.146672 0.328674
vn 0.0060199 -0.99938 -0.0346781
vn -0.932944 0.146672 -0.328674
vn -0.334405 0.106381 0.936366
vn 0.334405 -0.106381 -0.936366
vn 0.931249 0.134753 0.33844
vn -0.931249 -0.134753 -0.33844
vn -0.336969 -0.0275825 0.941138
vn 0.336969 0.0275825 -0.941138
vn 0.941469 0.0010757 0.337173
vn -0.941469 -0.0010757 -0.337173
vn -0.336884 -0.0417737 0.940646
vn 0.336884 0.0417737 -0.940646
vn 0.941554 -0.0131155 0.33668
vn -0.941554 0.0131155 -0.33668
vn 0.238101 0.719406 -0.652498
vn -0.681224 0.698798 -0.218186
vn -0.246467 0.669532 0.700693
vn 0.672858 0.690141 0.266382
vn 0.246467 -0.669532 -0.700693
vn 0.681224 -0.698798 0.218186
vn -0.238101 -0.719406 0.652498
vn -0.672858 -0.690141 -0.266382
usemtl None.081
s off
f 1//1 2//1 3//1
f 4//1 1//1 3//1
f 5//2 6//2 7//2
f 7//2 8//2 5//2
f 9//3 10//3 11//3
f 11//3 12//3 9//3
f 13//4 14//4 2//4
f 2//4 1//4 13//4
f 15//5 16//5 17//5
f 17//5 18//5 15//5
f 8//6 7//6 19//6
f 19//6 20//6 8//6
f 21//7 22//7 20//7
f 20//7 19//7 21//7
f 14//8 13//8 23//8
f 23//8 24//8 14//8
f 6//9 5//9 22//9
f 22//9 21//9 6//9
f 24//10 23//10 4//10
f 4//10 3//10 24//10
f 21//11 19//11 25//11
f 25//11 26//11 21//11
f 14//12 24//12 27//12
f 27//12 28//12 14//12
f 6//13 21//13 26//13
f 26//13 28//13 6//13
f 24//14 3//14 25//14
f 25//14 27//14 24//14
f 25//15 3//15 2//15
f 2//15 26//15 25//15
f 27//16 7//16 6//16
f 6//16 28//16 27//16
f 26//17 2//17 14//17
f 14//17 28//17 26//17
f 25//18 19//18 7//18
f 7//18 27//18 25//18
f 5//19 8//19 10//19
f 10//19 9//19 5//19
f 8//20 20//20 11//20
f 11//20 10//20 8//20
f 20//21 22//21 12//21
f 12//21 11//21 20//21
f 22//22 5//22 9//22
f 9//22 12//22 22//22
f 23//23 13//23 16//23
f 16//23 15//23 23//23
f 13//24 1//24 17//24
f 17//24 16//24 13//24
f 1//25 4//25 18//25
f 17//25 1//25 18//25
f 4//26 23//26 15//26
f 15//26 18//26 4//26

