# Blender v2.70 (sub 0) OBJ File: 'rocketbox.blend'
# www.blender.org
mtllib r_hand.mtl
o Cube.011
v 0.179805 0.046272 -0.010238
v 0.179805 -0.058125 -0.010238
v 0.014269 -0.058125 -0.010238
v 0.014269 0.046272 -0.010238
v 0.179805 0.046272 0.014127
v 0.179805 -0.058125 0.014127
v 0.014269 -0.058125 0.014127
v 0.014269 0.046272 0.014127
vn 1.000000 0.000000 -0.000001
vn -0.000000 -1.000000 -0.000000
vn -1.000000 -0.000000 0.000001
vn 0.000000 1.000000 0.000000
vn -0.000001 0.000001 -1.000000
vn 0.000001 -0.000001 1.000000
vn -0.000000 -1.000000 -0.000001
vn 0.000000 1.000000 0.000001
usemtl None
s off
f 6//1 2//1 1//1
f 6//2 7//2 3//2
f 8//3 4//3 3//3
f 8//4 5//4 1//4
f 2//5 3//5 4//5
f 7//6 6//6 5//6
f 5//1 6//1 1//1
f 2//7 6//7 3//7
f 7//3 8//3 3//3
f 4//8 8//8 1//8
f 1//5 2//5 4//5
f 8//6 7//6 5//6
