# Blender v2.72 (sub 0) OBJ File: 'rom.blend'
# www.blender.org
mtllib roms.mtl
o foo.004
v 0.898840 -0.202530 0.778259
v -0.483113 -0.719329 0.921834
v 0.214464 -0.829968 0.977646
v -0.211795 -0.503568 -0.955947
v -0.940403 -0.315281 -0.542540
v -0.197708 -1.209725 0.427242
v -0.149065 -1.213297 -0.245667
v -0.764758 -0.909525 -0.242923
v 0.714467 -1.036493 0.026072
v 0.613156 -0.087531 -0.836395
v 0.979415 -0.460037 -0.333598
v 0.696694 -0.903974 0.579761
v 0.408285 -0.800453 -0.724402
v 1.140852 -0.125553 -0.014458
v -1.051647 -0.257744 0.003836
vn 0.556500 -0.370800 0.743500
vn -0.683600 -0.675800 0.275600
vn -0.338600 -0.680400 -0.650000
vn -0.241400 0.798700 0.551100
vn -0.023900 0.326300 0.945000
vn 0.194700 -0.980700 0.019300
vn 0.910700 -0.332000 0.245800
vn 0.664900 -0.590800 -0.457100
vn 0.839100 0.104400 -0.533900
vn -0.924600 -0.349600 -0.151400
vn -0.835400 -0.473400 0.279300
vn 0.653500 -0.297200 -0.696200
vn -0.231800 0.663900 -0.710900
vn -0.169000 0.976000 -0.137200
vn -0.059300 0.994700 0.084100
vn -0.169900 -0.747100 0.642700
vn -0.077400 -0.708700 -0.701300
vn 0.302200 -0.867100 -0.396000
vn 0.900400 -0.415700 0.128400
vn 0.905400 -0.424400 -0.013200
vn 0.279000 -0.931900 0.232000
vn -0.521300 -0.502000 -0.690100
vn -0.059300 0.995100 0.078500
vn 0.224300 -0.872500 0.434100
vn -0.442400 -0.896400 -0.027200
vn 0.247400 -0.219300 -0.943800
usemtl None
s off
f 1//1 3//1 12//1
f 8//2 6//2 2//2
f 7//3 8//3 4//3
f 1//4 15//4 2//4
f 1//5 2//5 3//5
f 6//6 7//6 9//6
f 12//7 14//7 1//7
f 13//8 11//8 9//8
f 10//9 14//9 11//9
f 8//10 15//10 5//10
f 8//11 2//11 15//11
f 13//12 10//12 11//12
f 10//13 4//13 5//13
f 10//14 5//14 15//14
f 10//15 15//15 14//15
f 3//16 2//16 6//16
f 13//17 7//17 4//17
f 7//18 13//18 9//18
f 12//19 9//19 14//19
f 11//20 14//20 9//20
f 12//21 6//21 9//21
f 4//22 8//22 5//22
f 15//23 1//23 14//23
f 12//24 3//24 6//24
f 8//25 7//25 6//25
f 13//26 4//26 10//26
o foo.003
v 0.614709 0.798797 -0.428732
v 0.109842 0.136496 -0.408707
v -0.539152 -0.007682 0.321808
v -0.009319 0.032181 0.835216
v 0.814556 0.697358 0.756970
v 0.042359 1.121581 0.937013
v 0.623686 0.063991 0.200277
v 0.474498 1.370273 0.244209
vn 0.974500 -0.138900 -0.176100
vn 0.173600 -0.099800 0.979700
vn 0.062800 -0.997900 0.012600
vn -0.694100 -0.034300 0.719000
vn 0.920400 0.371100 -0.123400
vn -0.854800 0.293900 -0.427700
vn -0.690300 0.510700 -0.512500
vn 0.631900 -0.499600 -0.592600
vn 0.496900 0.670700 0.550700
vn 0.044600 -0.986900 -0.155100
vn 0.562800 -0.634900 0.529300
vn -0.687900 0.586900 -0.427000
usemtl None
s off
f 16//27 20//27 22//27
f 21//28 19//28 20//28
f 18//29 22//29 19//29
f 19//30 21//30 18//30
f 20//31 16//31 23//31
f 23//32 16//32 21//32
f 16//33 17//33 18//33
f 17//34 16//34 22//34
f 20//35 23//35 21//35
f 17//36 22//36 18//36
f 22//37 20//37 19//37
f 18//38 21//38 16//38
o foo.002
v -0.907034 -0.637396 -0.007956
v 0.025625 -1.218708 0.243438
v 0.990033 -0.344069 -0.600503
v 0.495543 -0.124130 -1.118363
v 1.029464 -0.180566 0.343275
v 0.544142 -1.108782 -0.149693
v 0.494915 -1.023953 -0.574197
v -0.079122 -0.771775 -1.044810
v -0.780215 -0.962017 -0.385533
v -0.056793 -1.213431 -0.443116
v 0.858619 -0.763050 0.255910
v 0.479723 -0.621530 -0.999330
v 0.992953 -0.630990 -0.248479
vn 0.683600 -0.517700 -0.514500
vn 0.540300 0.825000 -0.165500
vn 0.688400 -0.691800 -0.218100
vn -0.325800 -0.944900 0.031900
vn 0.938200 -0.300800 0.171100
vn -0.312200 -0.771300 -0.554600
vn 0.270100 -0.937700 -0.218700
vn 0.185600 -0.982200 -0.029800
vn 0.078500 -0.170300 0.982300
vn 0.141400 -0.234700 -0.961700
vn -0.200400 0.100000 0.974600
vn -0.558500 -0.712400 0.424900
vn -0.641900 0.504000 -0.577900
vn -0.249700 0.959800 0.128300
vn 0.667300 -0.193400 -0.719300
vn 0.730400 -0.682800 0.015700
vn 0.444300 -0.822000 0.356200
vn 0.715700 -0.538400 -0.444800
vn 0.998800 -0.033800 -0.035900
vn 0.133500 -0.796600 -0.589600
vn 0.242900 -0.700100 -0.671400
vn -0.677800 0.429400 -0.596800
usemtl None
s off
f 26//39 30//39 35//39
f 26//40 27//40 28//40
f 36//41 29//41 30//41
f 25//42 32//42 33//42
f 28//43 34//43 36//43
f 33//44 32//44 31//44
f 29//45 33//45 30//45
f 29//46 25//46 33//46
f 34//47 28//47 25//47
f 31//48 27//48 35//48
f 24//49 25//49 28//49
f 25//50 24//50 32//50
f 31//51 24//51 27//51
f 28//52 27//52 24//52
f 26//53 35//53 27//53
f 29//54 36//54 34//54
f 34//55 25//55 29//55
f 36//56 30//56 26//56
f 28//57 36//57 26//57
f 30//58 33//58 31//58
f 31//59 35//59 30//59
f 31//60 32//60 24//60
o foo.001
v -0.566212 1.059065 0.282095
v 0.857639 1.034173 -0.236806
v -0.082878 0.146725 0.400415
v -0.626483 0.505923 0.255636
v -0.647260 0.114848 -0.328131
v -0.609301 0.888576 -0.766813
v 0.325675 0.638060 -1.095731
v -0.221139 0.158297 -0.922437
v 0.131946 -0.193783 -0.277361
v 0.655654 0.159108 -0.504807
v 0.643306 0.444352 0.331111
vn 0.280500 0.610900 0.740300
vn 0.034300 0.146400 0.988600
vn -0.267700 -0.016900 0.963300
vn -0.993200 0.110100 -0.038400
vn 0.333500 -0.632600 -0.699000
vn 0.273000 -0.773700 -0.571700
vn -0.366700 -0.872800 0.322200
vn -0.768500 -0.286600 -0.572000
vn 0.367700 -0.779000 0.507900
vn -0.997400 0.066100 0.030200
vn -0.324800 0.028800 -0.945300
vn -0.333600 -0.892200 -0.304400
vn 0.962300 -0.252900 0.100500
vn 0.857800 -0.041100 -0.512300
vn 0.615100 -0.743400 0.262800
vn -0.040600 0.986500 -0.158700
vn -0.570200 -0.673000 0.471100
vn 0.076900 0.886400 -0.456400
usemtl None
s off
f 37//61 47//61 38//61
f 37//62 39//62 47//62
f 37//63 40//63 39//63
f 40//64 37//64 41//64
f 43//65 46//65 44//65
f 45//66 44//66 46//66
f 41//67 45//67 39//67
f 44//68 41//68 42//68
f 47//69 39//69 45//69
f 41//70 37//70 42//70
f 43//71 44//71 42//71
f 44//72 45//72 41//72
f 38//73 47//73 46//73
f 38//74 46//74 43//74
f 47//75 45//75 46//75
f 37//76 38//76 42//76
f 40//77 41//77 39//77
f 38//78 43//78 42//78
