# Blender v2.72 (sub 0) OBJ File: 'rom_simple.blend'
# www.blender.org
mtllib roms.mtl
o upper_right_leg_z_joint_foo.004
v 0.898840 -0.202530 0.778259
v 0.214464 -0.829968 0.977646
v 0.696694 -0.903974 0.579761
v -0.764758 -0.909525 -0.242923
v -0.197708 -1.209725 0.427242
v -0.483113 -0.719329 0.921834
v -0.149065 -1.213297 -0.245667
v -0.211795 -0.503568 -0.955947
v -1.051647 -0.257744 0.003836
v 0.714467 -1.036493 0.026072
v 1.140852 -0.125553 -0.014458
v 0.408285 -0.800453 -0.724402
v 0.979415 -0.460037 -0.333598
v 0.613156 -0.087531 -0.836395
v -0.940403 -0.315281 -0.542540
vn 0.556500 -0.370800 0.743500
vn -0.683600 -0.675800 0.275600
vn -0.338600 -0.680400 -0.650000
vn -0.241400 0.798700 0.551100
vn -0.023900 0.326300 0.945000
vn 0.194700 -0.980700 0.019300
vn 0.910700 -0.332000 0.245800
vn 0.664900 -0.590800 -0.457100
vn 0.839100 0.104400 -0.533900
vn -0.924600 -0.349600 -0.151400
vn -0.835400 -0.473400 0.279300
vn 0.653500 -0.297200 -0.696200
vn -0.231800 0.663900 -0.710900
vn -0.169000 0.976000 -0.137200
vn -0.059300 0.994700 0.084100
vn -0.169900 -0.747100 0.642700
vn -0.077400 -0.708700 -0.701300
vn 0.302200 -0.867100 -0.396000
vn 0.900400 -0.415700 0.128400
vn 0.905400 -0.424400 -0.013200
vn 0.279000 -0.931900 0.232000
vn -0.521300 -0.502000 -0.690100
vn -0.059300 0.995100 0.078500
vn 0.224200 -0.872500 0.434100
vn -0.442400 -0.896400 -0.027200
vn 0.247400 -0.219300 -0.943800
usemtl None.003
s off
f 1//1 2//1 3//1
f 4//2 5//2 6//2
f 7//3 4//3 8//3
f 1//4 9//4 6//4
f 1//5 6//5 2//5
f 5//6 7//6 10//6
f 11//7 1//7 3//7
f 12//8 13//8 10//8
f 14//9 11//9 13//9
f 4//10 9//10 15//10
f 4//11 6//11 9//11
f 12//12 14//12 13//12
f 14//13 8//13 15//13
f 14//14 15//14 9//14
f 14//15 9//15 11//15
f 2//16 6//16 5//16
f 12//17 7//17 8//17
f 7//18 12//18 10//18
f 3//19 10//19 11//19
f 13//20 11//20 10//20
f 3//21 5//21 10//21
f 8//22 4//22 15//22
f 9//23 1//23 11//23
f 3//24 2//24 5//24
f 4//25 7//25 5//25
f 12//26 8//26 14//26
o upper_left_leg_z_joint_foo.002
v 0.990033 -0.344069 -0.600503
v 0.494915 -1.023953 -0.574197
v 0.479723 -0.621530 -0.999330
v 0.495543 -0.124130 -1.118363
v 1.029464 -0.180566 0.343275
v 0.992953 -0.630990 -0.248479
v 0.544142 -1.108782 -0.149693
v 0.025625 -1.218708 0.243438
v -0.780215 -0.962017 -0.385533
v -0.056793 -1.213431 -0.443116
v 0.858619 -0.763050 0.255910
v -0.079122 -0.771775 -1.044810
v -0.907034 -0.637396 -0.007956
vn 0.683600 -0.517700 -0.514500
vn 0.540300 0.825000 -0.165500
vn 0.688400 -0.691800 -0.218100
vn -0.325800 -0.944900 0.031900
vn 0.938200 -0.300800 0.171100
vn -0.312200 -0.771300 -0.554600
vn 0.270100 -0.937700 -0.218700
vn 0.185600 -0.982200 -0.029800
vn 0.078500 -0.170300 0.982300
vn 0.141400 -0.234700 -0.961700
vn -0.200400 0.100000 0.974600
vn -0.558500 -0.712400 0.424900
vn -0.641900 0.504000 -0.577900
vn -0.249700 0.959800 0.128300
vn 0.667300 -0.193400 -0.719300
vn 0.730400 -0.682800 0.015700
vn 0.444300 -0.822000 0.356200
vn 0.715700 -0.538400 -0.444800
vn 0.998800 -0.033800 -0.035900
vn 0.133500 -0.796600 -0.589600
vn 0.242900 -0.700100 -0.671400
vn -0.677800 0.429400 -0.596800
usemtl None.002
s off
f 16//27 17//27 18//27
f 16//28 19//28 20//28
f 21//29 22//29 17//29
f 23//30 24//30 25//30
f 20//31 26//31 21//31
f 25//32 24//32 27//32
f 22//33 25//33 17//33
f 22//34 23//34 25//34
f 26//35 20//35 23//35
f 27//36 19//36 18//36
f 28//37 23//37 20//37
f 23//38 28//38 24//38
f 27//39 28//39 19//39
f 20//40 19//40 28//40
f 16//41 18//41 19//41
f 22//42 21//42 26//42
f 26//43 23//43 22//43
f 17//44 16//44 21//44
f 21//45 16//45 20//45
f 17//46 25//46 27//46
f 27//47 18//47 17//47
f 27//48 24//48 28//48
o upper_left_arm_z_joint_foo.001
v -0.566212 1.059065 0.282095
v 0.643306 0.444352 0.331111
v 0.857639 1.034173 -0.236806
v -0.082878 0.146725 0.400415
v -0.626483 0.505923 0.255636
v -0.647260 0.114848 -0.328131
v 0.325675 0.638060 -1.095731
v 0.655654 0.159108 -0.504807
v -0.221139 0.158297 -0.922437
v 0.131946 -0.193783 -0.277361
v -0.609301 0.888576 -0.766813
vn 0.280500 0.610900 0.740300
vn 0.034300 0.146400 0.988600
vn -0.267700 -0.016900 0.963300
vn -0.993200 0.110100 -0.038400
vn 0.333500 -0.632600 -0.699000
vn 0.273000 -0.773700 -0.571700
vn -0.366700 -0.872800 0.322200
vn -0.768500 -0.286600 -0.572000
vn 0.367700 -0.779000 0.507900
vn -0.997400 0.066100 0.030200
vn -0.324800 0.028800 -0.945300
vn -0.333600 -0.892200 -0.304400
vn 0.962300 -0.252900 0.100500
vn 0.857800 -0.041100 -0.512300
vn 0.615100 -0.743400 0.262800
vn -0.040600 0.986500 -0.158700
vn -0.570200 -0.673000 0.471100
vn 0.076900 0.886400 -0.456400
usemtl None.001
s off
f 29//49 30//49 31//49
f 29//50 32//50 30//50
f 29//51 33//51 32//51
f 33//52 29//52 34//52
f 35//53 36//53 37//53
f 38//54 37//54 36//54
f 34//55 38//55 32//55
f 37//56 34//56 39//56
f 30//57 32//57 38//57
f 34//58 29//58 39//58
f 35//59 37//59 39//59
f 37//60 38//60 34//60
f 31//61 30//61 36//61
f 31//62 36//62 35//62
f 30//63 38//63 36//63
f 29//64 31//64 39//64
f 33//65 34//65 32//65
f 31//66 35//66 39//66
o upper_right_arm_z_joint_foo.003
v 0.614709 0.798797 -0.428732
v 0.814556 0.697358 0.756970
v 0.623686 0.063991 0.200277
v 0.042359 1.121581 0.937013
v -0.009319 0.032181 0.835216
v -0.539152 -0.007682 0.321808
v 0.474498 1.370273 0.244209
v 0.109842 0.136496 -0.408707
vn 0.974500 -0.138900 -0.176100
vn 0.173600 -0.099800 0.979700
vn 0.062800 -0.997900 0.012600
vn -0.694100 -0.034300 0.719000
vn 0.920400 0.371100 -0.123400
vn -0.854800 0.293900 -0.427700
vn -0.690300 0.510700 -0.512500
vn 0.631800 -0.499600 -0.592600
vn 0.496900 0.670700 0.550700
vn 0.044600 -0.986900 -0.155100
vn 0.562800 -0.634900 0.529300
vn -0.687900 0.586900 -0.427000
usemtl None
s off
f 40//67 41//67 42//67
f 43//68 44//68 41//68
f 45//69 42//69 44//69
f 44//70 43//70 45//70
f 41//71 40//71 46//71
f 46//72 40//72 43//72
f 40//73 47//73 45//73
f 47//74 40//74 42//74
f 41//75 46//75 43//75
f 47//76 42//76 45//76
f 42//77 41//77 44//77
f 43//78 40//78 45//78
