# Blender v2.70 (sub 0) OBJ File: 'rocketbox.blend'
# www.blender.org
mtllib torso.mtl
o Cube.004
v 0.156281 0.143207 -0.193941
v 0.156281 -0.101535 -0.193942
v -0.179973 -0.101535 -0.193941
v -0.179973 0.143207 -0.193941
v 0.156281 0.143207 0.319204
v 0.156281 -0.101535 0.319204
v -0.179973 -0.101535 0.319205
v -0.179973 0.143207 0.319205
vn 1.000000 0.000000 -0.000001
vn -0.000000 -1.000000 -0.000001
vn -1.000000 0.000000 0.000001
vn 0.000000 1.000000 0.000001
vn -0.000001 0.000001 -1.000000
vn 0.000001 -0.000001 1.000000
usemtl None
s off
f 6//1 2//1 1//1
f 7//2 3//2 2//2
f 8//3 4//3 3//3
f 5//4 1//4 4//4
f 2//5 3//5 4//5
f 7//6 6//6 5//6
f 5//1 6//1 1//1
f 6//2 7//2 2//2
f 7//3 8//3 3//3
f 8//4 5//4 4//4
f 1//5 2//5 4//5
f 8//6 7//6 5//6
