# Blender v2.71 (sub 0) OBJ File: 'reduced_wall.blend'
# www.blender.org
mtllib wall.mtl
o Plane001
v -0.378108 2.947696 1.757920
v -0.379208 3.742345 1.758120
v -1.120608 2.949896 1.758170
v 0.458642 1.454646 1.009669
v 0.744942 0.106896 1.068368
v 0.988892 1.638146 0.619118
v 2.538942 0.106896 0.619118
v 2.538942 4.932846 0.619121
v 0.991892 5.270946 0.619821
v 2.539042 7.263246 1.466571
v 2.538992 4.934296 1.467271
v 3.661042 7.263246 1.468021
v 3.661042 0.106896 0.619118
v 3.661042 3.690146 0.619120
v 2.538942 7.263246 0.619121
v -0.567908 5.799145 3.468121
v -3.061608 6.468643 4.637121
v -2.253858 5.469495 3.802621
v -5.249759 7.263243 4.685121
v -5.249759 6.522293 4.601670
v -5.249759 2.020396 0.619119
v -1.465809 0.106896 0.619518
v 1.475242 7.263246 0.619121
v -0.567408 7.263245 3.313571
v -2.826308 7.263243 4.684220
v -5.249759 2.839245 1.201520
v -1.120758 3.551695 1.758020
v -2.308858 4.003096 1.203220
v -1.516008 3.973445 2.556120
v 0.945892 5.396544 1.836121
v 0.073642 4.420045 1.984370
v 1.430642 7.263245 2.610771
v -0.565208 5.778495 2.563521
v 3.661042 3.691546 1.466570
v -0.566208 7.263245 2.612321
v -3.184358 4.991095 3.474470
v -4.426059 5.634594 3.446021
v -5.249759 3.217295 2.349370
v -5.249759 0.106896 0.619118
v -3.363808 4.970294 2.561670
v -5.249759 3.196646 1.570620
v -5.249759 5.362144 3.623071
v -2.432558 5.449545 2.562121
vt 0.772000 0.235900
vt 0.771200 0.777600
vt 0.176400 0.237400
vt 0.314300 -0.147400
vt 0.155100 -1.066200
vt -0.220600 -0.022300
vt -0.058500 0.024400
vt 1.058500 0.030600
vt 0.142800 1.050400
vt 0.655200 -1.817700
vt 0.655100 1.308200
vt -0.466600 1.527200
vt 0.074100 1.724700
vt 0.074100 0.143800
vt 0.920200 1.724700
vt 1.468800 -1.817700
vt 1.468800 0.503300
vt 0.291600 1.401000
vt 0.913000 -0.297200
vt 0.912500 1.401000
vt -0.297600 0.211800
vt 1.192900 0.211800
vt -0.298500 0.788200
vt 1.378300 0.375500
vt -0.229400 1.123200
vt 0.265300 0.359000
vt 1.158700 0.258300
vt -0.365100 0.724200
vt -0.365100 0.288400
vt -0.971000 0.480000
vt 1.839100 -0.432100
vt 1.836800 1.665700
vt 1.222500 1.412400
vt -0.222200 2.454600
vt 0.655200 2.817700
vt -0.116100 2.817700
vt 1.417200 0.950200
vt -0.291500 0.950200
vt 1.360300 0.151000
vt -1.016600 1.161700
vt -0.423100 0.000500
vt 1.423100 0.000500
vt 1.183900 0.999500
vt 1.221700 0.870600
vt 1.317700 0.406100
vt 0.601700 1.605300
vt -0.304600 -0.606900
vt -0.022000 1.606900
vt 2.002400 0.539000
vt 1.122900 0.951100
vt 1.989900 0.199300
vt 0.158200 0.190300
vt 0.802900 0.303800
vt -0.200300 0.793600
vt -0.048300 1.235200
vt 0.951500 1.247900
vt 1.000400 0.275100
vt -0.021300 -0.188800
vt -0.034700 1.136700
vt 1.302400 1.140700
vt -0.023400 -0.699900
vt 0.899600 -0.000900
vt -0.008900 0.571300
vt -0.115600 -0.013200
vt 1.059100 -0.014700
vt 0.846000 1.304200
vt -0.468800 -0.825800
vt 0.291600 -0.298200
vt 0.920200 -0.699800
vt 1.192000 0.787700
vt 0.745800 -0.309500
vt 0.797300 -0.109800
vt 1.109600 0.915700
vt -0.108600 0.915800
vt -0.108000 0.084200
vt 1.150600 0.788400
vt -0.399900 0.516500
vt 1.322600 0.724200
vt 1.048100 0.698300
vt 0.256400 0.719900
vt 0.282400 -0.708000
vt 0.176200 0.647600
vt -0.814500 1.163700
vt -0.814500 -0.163700
vt 1.865200 -0.163700
vt -0.517700 -0.230200
vt 1.575900 0.248100
vt 0.841000 1.230200
vt -0.326000 0.037600
vt 0.770100 1.682200
vt -0.516700 0.075500
vt 1.180500 0.944400
vt -0.229500 0.945500
vt 0.301300 -0.003000
vt 0.968800 0.874900
vt 0.250000 1.751300
vt 0.284000 0.801300
vt 0.215200 -0.754200
vt -0.301700 0.144000
vt 1.019100 0.148100
vt 0.069000 0.670500
vt 1.002200 1.388600
vt 0.457500 1.260300
vt -0.217500 1.342100
vt 1.215800 -0.405600
vt 0.194700 0.034500
vt 0.903200 0.148900
vt 0.203400 0.641800
vt -0.126700 0.127900
vt 1.193200 0.128500
vt 1.194100 0.665000
vt 0.084200 0.260500
vt 0.915800 0.286300
vt 0.095800 0.739500
vt 0.915800 0.657700
vt -0.001900 0.863300
vt 0.873900 0.967100
vt 0.650800 -0.400100
vt 0.553200 -0.091100
vt 1.100500 0.931100
vt -0.526200 0.925200
vt 1.528400 0.335900
vt -0.971900 0.206300
vt 1.187300 0.785100
vn 0.000300 -0.000300 1.000000
vn 0.551200 0.152800 0.820200
vn 0.235900 0.238800 0.942000
vn 0.000500 -0.000000 1.000000
vn -0.001300 0.000300 1.000000
vn 0.000000 -0.000000 1.000000
vn -1.000000 0.000000 0.000100
vn -0.742200 -0.670200 0.001200
vn 0.260500 -0.486100 0.834200
vn -0.018800 -0.111900 0.993500
vn -0.175800 -0.347500 0.921000
vn 0.639200 -0.000700 0.769000
vn 0.000000 0.000400 1.000000
vn 0.516700 0.089700 0.851500
vn -0.093900 -0.577000 0.811300
vn -0.199000 0.000400 0.980000
vn 0.605100 -0.058800 0.794000
vn 0.096900 -0.402000 0.910500
vn -0.000800 -0.371700 0.928300
vn -0.423100 0.000100 0.906100
vn 0.210100 -0.817600 0.536100
vn 0.749500 -0.655000 0.096000
vn 0.971600 -0.235700 0.021800
vn 0.381700 -0.204800 0.901300
vn 0.300600 -0.431100 0.850800
vn -0.000200 -0.000200 1.000000
vn 0.000200 -0.000400 1.000000
vn -0.742200 -0.670100 0.001100
vn 0.640500 0.000700 0.768000
vn 0.792800 -0.585900 0.168100
vn 0.959000 -0.275900 0.064800
vn 0.000800 -0.032800 0.999500
vn 0.382100 -0.204500 0.901200
vn 0.381400 -0.166800 0.909200
vn 0.000400 -0.059300 0.998200
vn -0.200900 -0.347100 0.916000
vn -0.000200 0.000200 1.000000
vn -0.000100 -0.000000 1.000000
vn 0.266800 -0.675100 0.687800
vn 0.042500 -0.620000 0.783400
vn -0.313300 -0.571000 0.758800
vn 0.296200 -0.686200 0.664400
vn -0.029300 -0.802700 0.595700
vn 0.353200 -0.603200 0.715100
vn 0.333500 -0.481400 0.810600
vn 0.001200 -0.003300 1.000000
vn -0.000000 -0.004100 1.000000
vn 0.713700 -0.689300 -0.124600
vn 0.456500 -0.887000 -0.069500
vn 0.173400 -0.984600 0.023000
vn 1.000000 0.000600 0.003000
vn 1.000000 -0.000200 0.001700
vn 0.189700 -0.981800 -0.011500
vn 0.471500 -0.880200 -0.053800
vn 0.645000 -0.763900 0.020300
vn -0.459100 -0.852400 0.250400
vn -0.440400 -0.865300 0.239200
vn -0.134600 0.338800 0.931200
vn 0.414800 -0.525200 0.743000
usemtl None
s off
f 1/1/1 2/2/1 3/3/1
f 4/4/2 5/5/2 6/6/2
f 5/7/3 7/8/3 6/9/3
f 7/10/4 8/11/4 9/12/4
f 10/13/5 11/14/5 12/15/5
f 7/10/6 13/16/6 14/17/6
f 15/18/7 11/19/7 10/20/7
f 8/21/8 14/22/8 11/23/8
f 16/24/9 17/25/9 18/26/9
f 17/27/10 19/28/10 20/29/10
f 21/30/11 22/31/11 3/32/11
f 2/33/12 6/6/12 9/34/12
f 15/35/13 23/36/13 9/12/13
f 24/37/14 25/38/14 16/39/14
f 3/32/15 26/40/15 21/30/15
f 22/41/16 5/42/16 4/43/16
f 6/6/17 1/44/17 4/4/17
f 4/45/18 1/46/18 22/47/18
f 1/46/19 3/48/19 22/47/19
f 27/49/20 28/50/20 3/51/20
f 27/52/21 2/53/21 29/54/21
f 9/55/22 30/56/22 31/57/22
f 9/58/23 23/59/23 32/60/23
f 29/61/24 31/62/24 33/63/24
f 33/64/25 30/65/25 32/66/25
f 14/17/6 8/11/6 7/10/6
f 9/12/26 6/67/26 7/10/26
f 9/12/4 8/11/4 15/35/4
f 15/18/7 8/68/7 11/19/7
f 11/14/27 34/69/27 12/15/27
f 14/22/28 34/70/28 11/23/28
f 2/33/29 1/44/29 6/6/29
f 31/57/30 2/71/30 9/55/30
f 32/60/31 30/72/31 9/58/31
f 32/73/32 35/74/32 33/75/32
f 31/62/33 30/76/33 33/63/33
f 25/38/34 17/77/34 16/39/34
f 17/27/35 25/78/35 19/28/35
f 36/79/36 37/80/36 38/81/36
f 2/2/37 27/82/37 3/3/37
f 21/83/38 39/84/38 22/85/38
f 26/86/39 28/87/39 40/88/39
f 17/25/40 36/89/40 18/26/40
f 36/79/41 17/90/41 37/80/41
f 40/88/42 41/91/42 26/86/42
f 17/92/43 20/93/43 37/94/43
f 37/95/44 20/96/44 42/97/44
f 37/95/45 42/97/45 38/98/45
f 40/99/46 29/100/46 43/101/46
f 43/101/47 29/100/47 33/102/47
f 40/103/48 36/104/48 41/105/48
f 40/106/49 43/107/49 36/108/49
f 43/109/50 33/110/50 16/111/50
f 33/112/51 35/113/51 16/114/51
f 35/113/52 24/115/52 16/114/52
f 16/111/53 18/116/53 43/109/53
f 43/107/54 18/117/54 36/108/54
f 36/104/55 38/118/55 41/105/55
f 28/119/56 29/120/56 40/121/56
f 27/122/57 29/120/57 28/119/57
f 28/50/58 26/123/58 3/51/58
f 2/53/59 31/124/59 29/54/59
