# Blender v2.69 (sub 0) OBJ File: 'reduced_wall.blend'
# www.blender.org
mtllib wall.mtl
o Plane001
v -0.785700 5.866700 3.501803
v -0.787900 7.455997 3.502203
v -2.270700 5.871099 3.502303
v 0.887800 2.880600 2.005301
v 1.460400 0.185100 2.122700
v 1.948300 3.247600 1.224200
v 5.048400 0.185100 1.224200
v 5.048400 9.837000 1.224205
v 1.954300 10.513200 1.225606
v 5.048600 14.497800 2.919106
v 5.048500 9.839900 2.920506
v 7.292600 14.497800 2.922006
v 7.292600 0.185100 1.224200
v 7.292600 7.351600 1.224203
v 5.048400 14.497800 1.224206
v -1.165300 11.569597 6.922206
v -6.152700 12.908594 9.260205
v -4.537200 10.910297 7.591206
v -10.529000 14.497794 9.356206
v -10.529000 13.015894 9.189304
v -10.529000 4.012100 1.224203
v -2.961100 0.185100 1.225000
v 2.921000 14.497800 1.224206
v -1.164300 14.497797 6.613106
v -5.682100 14.497794 9.354404
v -10.529000 5.649797 2.389003
v -2.271000 7.074697 3.502003
v -4.647200 7.977499 2.392403
v -3.061500 7.918197 5.098204
v 1.862300 10.764397 3.658206
v 0.117800 8.811399 3.954703
v 2.831800 14.497797 5.207506
v -1.159900 11.528297 5.113006
v 7.292600 7.354400 2.919103
v -1.161900 14.497797 5.210607
v -6.398200 9.953497 6.934905
v -8.881600 11.240497 6.878006
v -10.529000 6.405897 4.684703
v -10.529000 0.185100 1.224200
v -6.757100 9.911897 5.109304
v -10.529000 6.364600 3.127203
v -10.529000 10.695597 7.232106
v -4.894600 10.870399 5.110206
vt 0.772000 0.235900
vt 0.771200 0.777600
vt 0.176400 0.237400
vt 0.314300 -0.147400
vt 0.155100 -1.066200
vt -0.220600 -0.022300
vt -0.058500 0.024400
vt 1.058500 0.030600
vt 0.142800 1.050400
vt 0.655200 -1.817700
vt 0.655100 1.308200
vt -0.466600 1.527200
vt 0.074100 1.724700
vt 0.074100 0.143800
vt 0.920200 1.724700
vt 1.468800 -1.817700
vt 1.468800 0.503300
vt 0.291600 1.401000
vt 0.913000 -0.297200
vt 0.912500 1.401000
vt -0.297600 0.211800
vt 1.192900 0.211800
vt -0.298500 0.788200
vt 1.378300 0.375500
vt -0.229400 1.123200
vt 0.265300 0.359000
vt 1.158700 0.258300
vt -0.365100 0.724200
vt -0.365100 0.288400
vt -0.971000 0.480000
vt 1.839100 -0.432100
vt 1.836800 1.665700
vt 1.222500 1.412400
vt -0.222200 2.454600
vt 0.655200 2.817700
vt -0.116100 2.817700
vt 1.417200 0.950200
vt -0.291500 0.950200
vt 1.360300 0.151000
vt -1.016600 1.161700
vt -0.423100 0.000500
vt 1.423100 0.000500
vt 1.183900 0.999500
vt 1.221700 0.870600
vt 1.317700 0.406100
vt 0.601700 1.605300
vt -0.304600 -0.606900
vt -0.022000 1.606900
vt 2.002400 0.539000
vt 1.122900 0.951100
vt 1.989900 0.199300
vt 0.158200 0.190300
vt 0.802900 0.303800
vt -0.200300 0.793600
vt -0.048300 1.235200
vt 0.951500 1.247900
vt 1.000400 0.275100
vt -0.021300 -0.188800
vt -0.034700 1.136700
vt 1.302400 1.140700
vt -0.023400 -0.699900
vt 0.899600 -0.000900
vt -0.008900 0.571300
vt -0.115600 -0.013200
vt 1.059100 -0.014700
vt 0.846000 1.304200
vt -0.468800 -0.825800
vt 0.291600 -0.298200
vt 0.920200 -0.699800
vt 1.192000 0.787700
vt 0.745800 -0.309500
vt 0.797300 -0.109800
vt 1.109600 0.915700
vt -0.108600 0.915800
vt -0.108000 0.084200
vt 1.150600 0.788400
vt -0.399900 0.516500
vt 1.322600 0.724200
vt 1.048100 0.698300
vt 0.256400 0.719900
vt 0.282400 -0.708000
vt 0.176200 0.647600
vt -0.814500 1.163700
vt -0.814500 -0.163700
vt 1.865200 -0.163700
vt -0.517700 -0.230200
vt 1.575900 0.248100
vt 0.841000 1.230200
vt -0.326000 0.037600
vt 0.770100 1.682200
vt -0.516700 0.075500
vt 1.180500 0.944400
vt -0.229500 0.945500
vt 0.301300 -0.003000
vt 0.968800 0.874900
vt 0.250000 1.751300
vt 0.284000 0.801300
vt 0.215200 -0.754200
vt -0.301700 0.144000
vt 1.019100 0.148100
vt 0.069000 0.670500
vt 1.002200 1.388600
vt 0.457500 1.260300
vt -0.217500 1.342100
vt 1.215800 -0.405600
vt 0.194700 0.034500
vt 0.903200 0.148900
vt 0.203400 0.641800
vt -0.126700 0.127900
vt 1.193200 0.128500
vt 1.194100 0.665000
vt 0.084200 0.260500
vt 0.915800 0.286300
vt 0.095800 0.739500
vt 0.915800 0.657700
vt -0.001900 0.863300
vt 0.873900 0.967100
vt 0.650800 -0.400100
vt 0.553200 -0.091100
vt 1.100500 0.931100
vt -0.526200 0.925200
vt 1.528400 0.335900
vt -0.971900 0.206300
vt 1.187300 0.785100
vn 0.000336 -0.000251 1.000000
vn 0.551244 0.152824 0.820228
vn 0.235890 0.238786 0.941986
vn 0.000452 -0.000001 1.000000
vn -0.001292 0.000300 0.999999
vn 0.000000 -0.000000 1.000000
vn -1.000000 0.000022 0.000118
vn -0.742203 -0.670174 0.001189
vn 0.260545 -0.486076 0.834174
vn -0.018840 -0.111899 0.993541
vn -0.175840 -0.347533 0.921033
vn 0.639211 -0.000677 0.769031
vn 0.000000 0.000351 1.000000
vn 0.516658 0.089705 0.851480
vn -0.093909 -0.577034 0.811303
vn -0.198971 0.000416 0.980005
vn 0.605122 -0.058770 0.793961
vn 0.096930 -0.401981 0.910503
vn -0.000788 -0.371716 0.928346
vn -0.423069 0.000120 0.906098
vn 0.210125 -0.817580 0.536107
vn 0.749547 -0.654956 0.095980
vn 0.971581 -0.235707 0.021757
vn 0.381703 -0.204755 0.901320
vn 0.300567 -0.431107 0.850768
vn 0.000000 -0.000001 1.000000
vn -0.000191 -0.000193 1.000000
vn 0.000452 -0.000000 1.000000
vn -1.000000 -0.000000 0.000059
vn 0.000175 -0.000406 1.000000
vn -0.742231 -0.670143 0.001107
vn 0.640455 0.000693 0.767995
vn 0.792767 -0.585874 0.168143
vn 0.958999 -0.275910 0.064760
vn 0.000776 -0.032849 0.999460
vn 0.382119 -0.204508 0.901200
vn 0.381430 -0.166844 0.909216
vn 0.000371 -0.059280 0.998241
vn -0.200885 -0.347130 0.916049
vn -0.000199 0.000249 1.000000
vn -0.000106 -0.000001 1.000000
vn 0.266766 -0.675087 0.687818
vn 0.042474 -0.620006 0.783447
vn -0.313320 -0.571037 0.758780
vn 0.296163 -0.686170 0.664423
vn -0.029331 -0.802691 0.595673
vn 0.353226 -0.603202 0.715108
vn 0.333457 -0.481374 0.810608
vn 0.001218 -0.003309 0.999994
vn -0.000030 -0.004084 0.999992
vn 0.713707 -0.689273 -0.124603
vn 0.456510 -0.886997 -0.069534
vn 0.173425 -0.984579 0.022992
vn 0.999995 0.000576 0.002972
vn 0.999999 -0.000161 0.001711
vn 0.189676 -0.981779 -0.011534
vn 0.471511 -0.880219 -0.053768
vn 0.645017 -0.763900 0.020255
vn -0.459090 -0.852382 0.250363
vn -0.440448 -0.865338 0.239154
vn -0.134611 0.338785 0.931184
vn 0.414801 -0.525232 0.743015
usemtl None
s off
f 1/1/1 2/2/1 3/3/1
f 4/4/2 5/5/2 6/6/2
f 5/7/3 7/8/3 6/9/3
f 7/10/4 8/11/4 9/12/4
f 10/13/5 11/14/5 12/15/5
f 7/10/6 13/16/6 14/17/6
f 15/18/7 11/19/7 10/20/7
f 8/21/8 14/22/8 11/23/8
f 16/24/9 17/25/9 18/26/9
f 17/27/10 19/28/10 20/29/10
f 21/30/11 22/31/11 3/32/11
f 2/33/12 6/6/12 9/34/12
f 15/35/13 23/36/13 9/12/13
f 24/37/14 25/38/14 16/39/14
f 3/32/15 26/40/15 21/30/15
f 22/41/16 5/42/16 4/43/16
f 6/6/17 1/44/17 4/4/17
f 4/45/18 1/46/18 22/47/18
f 1/46/19 3/48/19 22/47/19
f 27/49/20 28/50/20 3/51/20
f 27/52/21 2/53/21 29/54/21
f 9/55/22 30/56/22 31/57/22
f 9/58/23 23/59/23 32/60/23
f 29/61/24 31/62/24 33/63/24
f 33/64/25 30/65/25 32/66/25
f 14/17/26 8/11/26 7/10/26
f 9/12/27 6/67/27 7/10/27
f 9/12/28 8/11/28 15/35/28
f 15/18/29 8/68/29 11/19/29
f 11/14/30 34/69/30 12/15/30
f 14/22/31 34/70/31 11/23/31
f 2/33/32 1/44/32 6/6/32
f 31/57/33 2/71/33 9/55/33
f 32/60/34 30/72/34 9/58/34
f 32/73/35 35/74/35 33/75/35
f 31/62/36 30/76/36 33/63/36
f 25/38/37 17/77/37 16/39/37
f 17/27/38 25/78/38 19/28/38
f 36/79/39 37/80/39 38/81/39
f 2/2/40 27/82/40 3/3/40
f 21/83/41 39/84/41 22/85/41
f 26/86/42 28/87/42 40/88/42
f 17/25/43 36/89/43 18/26/43
f 36/79/44 17/90/44 37/80/44
f 40/88/45 41/91/45 26/86/45
f 17/92/46 20/93/46 37/94/46
f 37/95/47 20/96/47 42/97/47
f 37/95/48 42/97/48 38/98/48
f 40/99/49 29/100/49 43/101/49
f 43/101/50 29/100/50 33/102/50
f 40/103/51 36/104/51 41/105/51
f 40/106/52 43/107/52 36/108/52
f 43/109/53 33/110/53 16/111/53
f 33/112/54 35/113/54 16/114/54
f 35/113/55 24/115/55 16/114/55
f 16/111/56 18/116/56 43/109/56
f 43/107/57 18/117/57 36/108/57
f 36/104/58 38/118/58 41/105/58
f 28/119/59 29/120/59 40/121/59
f 27/122/60 29/120/60 28/119/60
f 28/50/61 26/123/61 3/51/61
f 2/53/62 31/124/62 29/54/62
