# Blender v2.72 (sub 0) OBJ File: 'chair.blend'
# www.blender.org
mtllib between.mtl
o Cube.002_Cube.003
v 0.039425 0.545657 0.500000
v -0.396284 0.545657 0.500000
v -0.396284 0.545657 -0.500000
v -0.396284 0.454343 -0.500000
v -0.396284 0.454343 0.500000
v 0.039425 0.454343 0.500000
v 0.039425 0.545657 -0.500000
v 0.039425 0.454343 -0.500000
vn 0.000000 -1.000000 0.000000
vn 0.000000 1.000000 0.000000
vn -1.000000 0.000000 0.000000
vn 0.000000 0.000000 -1.000000
vn 1.000000 0.000000 0.000000
vn 0.000000 0.000000 1.000000
usemtl Material.003
s off
f 1//1 2//1 3//1
f 4//2 5//2 6//2
f 7//3 8//3 6//3
f 1//4 6//4 5//4
f 5//5 4//5 3//5
f 8//6 7//6 3//6
f 7//1 1//1 3//1
f 8//2 4//2 6//2
f 1//3 7//3 6//3
f 2//4 1//4 5//4
f 2//5 5//5 3//5
f 4//6 8//6 3//6
o Plane
v 2.633492 -0.000000 1.507933
v 2.633492 0.000000 -1.507933
v -2.633492 0.000000 -1.507933
v -2.633492 -0.000000 1.507933
vn 0.000000 1.000000 0.000000
usemtl None
s off
f 9//7 10//7 11//7
f 12//7 9//7 11//7
o Cube.000
v 1.200419 0.992815 -0.500000
v 1.200419 0.992815 0.500000
v 0.246028 0.992815 0.500000
v 1.200419 1.102276 -0.500000
v 0.246028 1.102276 -0.500000
v 0.246027 1.102276 0.500000
v 1.200419 1.102276 0.500000
v 0.246028 0.992815 -0.500000
vn 0.000000 -1.000000 0.000000
vn 0.000000 1.000000 -0.000000
vn 1.000000 -0.000000 0.000000
vn 0.000000 0.000000 1.000000
vn -1.000000 0.000000 -0.000000
vn 0.000000 0.000000 -1.000000
usemtl Material.000
s off
f 13//8 14//8 15//8
f 16//9 17//9 18//9
f 13//10 16//10 19//10
f 14//11 19//11 18//11
f 18//12 17//12 20//12
f 16//13 13//13 20//13
f 20//8 13//8 15//8
f 19//9 16//9 18//9
f 14//10 13//10 19//10
f 15//11 14//11 18//11
f 15//12 18//12 20//12
f 17//13 16//13 20//13
o Cube.002_Cube.000
v 0.039425 0.460194 0.500000
v -0.396284 0.460194 0.500000
v -0.396284 0.460194 -0.500000
v -0.396284 -0.058848 -0.500000
v -0.396284 -0.058848 0.500000
v 0.039425 -0.058848 0.500000
v 0.039425 0.460194 -0.500000
v 0.039425 -0.058848 -0.500000
vn 0.000000 -1.000000 -0.000000
vn 0.000000 1.000000 0.000000
vn -1.000000 0.000000 0.000000
vn 0.000000 0.000000 -1.000000
vn 1.000000 0.000000 0.000000
vn 0.000000 0.000000 1.000000
usemtl Material.005
s off
f 21//14 22//14 23//14
f 24//15 25//15 26//15
f 27//16 28//16 26//16
f 21//17 26//17 25//17
f 25//18 24//18 23//18
f 28//19 27//19 23//19
f 27//14 21//14 23//14
f 28//15 24//15 26//15
f 21//16 27//16 26//16
f 22//17 21//17 25//17
f 22//18 25//18 23//18
f 24//19 28//19 23//19
