# Blender v2.72 (sub 0) OBJ File: 'demo.blend'
# www.blender.org
mtllib race_2.mtl
o Plane.007
v 13.366636 8.178871 -2.532565
v 13.366636 8.178870 2.467435
v 13.366636 7.178871 -2.532565
v 13.366636 7.178870 2.467435
vt -0.000000 1.000000
vt 0.000000 0.000000
vt 1.000000 1.000000
vt 1.000000 0.000000
vn 1.000000 0.000000 0.000000
usemtl Default-Diffuse.007
s off
f 1/1/1 2/2/1 3/3/1
f 3/3/1 2/2/1 4/4/1
o Plane.005
v 13.366636 7.182803 -2.532565
v 13.366636 7.182802 2.467435
v 13.366636 8.182803 -2.532565
v 13.366636 8.182802 2.467435
vt -0.000000 1.000000
vt 0.000000 0.000000
vt 1.000000 1.000000
vt 1.000000 0.000000
vn -1.000000 0.000000 0.000000
usemtl Default-Diffuse.006
s off
f 5/5/2 6/6/2 7/7/2
f 7/7/2 6/6/2 8/8/2
o Plane.003
v 11.791789 6.167504 -2.312769
v 11.791789 6.167504 2.687231
v 31.791790 6.167504 -2.312769
v 31.791790 6.167504 2.687231
vt -0.000000 1.000000
vt 0.000000 0.000000
vt 1.000000 1.000000
vt 1.000000 0.000000
vn 0.000000 1.000000 0.000000
usemtl Default-Diffuse.003
s off
f 9/9/3 10/10/3 11/11/3
f 11/11/3 10/10/3 12/12/3
o Cube.028_Cube.030
v 14.629457 6.170212 2.642660
v 14.629457 6.170212 -2.357340
v 14.729458 6.170212 -2.357340
v 14.729458 6.170212 2.642660
v 14.629457 6.870212 2.642660
v 14.629457 6.870212 -2.357340
v 14.729458 6.870212 -2.357340
v 14.729458 6.870212 2.642660
vn -1.000000 0.000000 0.000000
vn 0.000000 0.000000 -1.000000
vn 1.000000 0.000000 0.000000
vn 0.000000 0.000000 1.000000
vn 0.000000 -1.000000 0.000000
vn 0.000000 1.000000 0.000000
usemtl None
s off
f 18//4 14//4 13//4
f 19//5 15//5 14//5
f 20//6 16//6 15//6
f 17//7 13//7 16//7
f 14//8 15//8 16//8
f 19//9 18//9 17//9
f 17//4 18//4 13//4
f 18//5 19//5 14//5
f 19//6 20//6 15//6
f 20//7 17//7 16//7
f 13//8 14//8 16//8
f 20//9 19//9 17//9
o Cube.029_Cube.031
v 16.753536 6.170212 2.642660
v 16.753536 6.170212 -2.357340
v 16.853535 6.170212 -2.357340
v 16.853535 6.170212 2.642660
v 16.753536 6.870212 2.642660
v 16.753536 6.870212 -2.357340
v 16.853535 6.870212 -2.357340
v 16.853535 6.870212 2.642660
vn -1.000000 0.000000 0.000000
vn 0.000000 0.000000 -1.000000
vn 1.000000 0.000000 0.000000
vn 0.000000 0.000000 1.000000
vn 0.000000 -1.000000 0.000000
vn 0.000000 1.000000 0.000000
usemtl None
s off
f 26//10 22//10 21//10
f 27//11 23//11 22//11
f 28//12 24//12 23//12
f 25//13 21//13 24//13
f 22//14 23//14 24//14
f 27//15 26//15 25//15
f 25//10 26//10 21//10
f 26//11 27//11 22//11
f 27//12 28//12 23//12
f 28//13 25//13 24//13
f 21//14 22//14 24//14
f 28//15 27//15 25//15
o Plane.006_Plane.008
v 16.812706 7.791220 -2.532565
v 16.812708 7.791219 2.467435
v 16.812706 8.791220 -2.532565
v 16.812708 8.791219 2.467435
vt -0.000000 1.000000
vt 0.000000 0.000000
vt 1.000000 1.000000
vt 1.000000 0.000000
vn -1.000000 0.000000 0.000000
usemtl Default-Diffuse.008
s off
f 29/13/16 30/14/16 31/15/16
f 31/15/16 30/14/16 32/16/16
o Plane.008_Plane.009
v 16.812706 7.791220 -2.532565
v 16.812708 7.791219 2.467435
v 16.812706 8.791220 -2.532565
v 16.812708 8.791219 2.467435
vt -0.000000 1.000000
vt 0.000000 0.000000
vt 1.000000 1.000000
vt 1.000000 0.000000
vn -1.000000 0.000000 0.000000
usemtl Default-Diffuse.009
s off
f 33/17/17 34/18/17 35/19/17
f 35/19/17 34/18/17 36/20/17
