# Blender v2.73 (sub 0) OBJ File: 'spider.blend'
# www.blender.org
mtllib BackRightLimb.mtl
o BackRightLimb_Cube.014
v 1.431680 -0.231560 -0.580031
v 1.373857 -0.297599 -0.604513
v 1.120512 -0.165571 -0.362274
v 1.178335 -0.099532 -0.337793
v 1.482803 -0.312495 -0.482453
v 1.424979 -0.378534 -0.506934
v 1.171634 -0.246506 -0.264695
v 1.229457 -0.180467 -0.240214
vn 0.676400 -0.352500 -0.646700
vn -0.634500 -0.724700 -0.268700
vn -0.676400 0.352500 0.646700
vn 0.634500 0.724700 0.268700
vn -0.374000 0.592100 -0.713800
vn 0.374000 -0.592100 0.713800
vn -0.634500 -0.724700 -0.268600
usemtl None
s off
f 5//1 6//1 2//1
f 7//2 3//2 2//2
f 8//3 4//3 3//3
f 5//4 1//4 4//4
f 2//5 3//5 4//5
f 7//6 6//6 5//6
f 1//1 5//1 2//1
f 6//7 7//7 2//7
f 7//3 8//3 3//3
f 8//4 5//4 4//4
f 1//5 2//5 4//5
f 8//6 7//6 5//6
