# Blender v2.73 (sub 0) OBJ File: 'spider_detached.blend'
# www.blender.org
mtllib BackRightLowerLimb.mtl
o BackRightLowerLimb_Cube.015
v 0.394698 -0.152476 -0.176486
v 0.349843 -0.230863 -0.187218
v 0.037016 -0.066907 -0.077273
v 0.081871 0.011480 -0.066541
v 0.411737 -0.173067 -0.097299
v 0.366882 -0.251454 -0.108031
v 0.054055 -0.087498 0.001914
v 0.098910 -0.009111 0.012645
vn 0.845700 -0.443200 -0.297200
vn -0.493200 -0.861900 -0.118000
vn -0.845700 0.443200 0.297200
vn 0.493200 0.861900 0.118000
vn -0.203900 0.246400 -0.947500
vn 0.203900 -0.246400 0.947500
usemtl None
s off
f 6//1 2//1 1//1
f 7//2 3//2 2//2
f 8//3 4//3 3//3
f 5//4 1//4 4//4
f 2//5 3//5 4//5
f 7//6 6//6 5//6
f 5//1 6//1 1//1
f 6//2 7//2 2//2
f 7//3 8//3 3//3
f 8//4 5//4 4//4
f 1//5 2//5 4//5
f 8//6 7//6 5//6
