# Blender v2.73 (sub 0) OBJ File: 'spider.blend'
# www.blender.org
mtllib BackLeftEffector.mtl
o BackLeftEffector_Cube.024
v -0.806570 -0.658151 -0.783157
v -0.847543 -0.592120 -0.783157
v -0.775666 -0.547520 -0.783157
v -0.734693 -0.613550 -0.783157
v -0.806570 -0.658151 -0.753157
v -0.847543 -0.592120 -0.753157
v -0.775666 -0.547520 -0.753157
v -0.734693 -0.613550 -0.753157
vn -0.849700 -0.527300 0.000000
vn -0.527300 0.849700 0.000000
vn 0.849700 0.527300 0.000000
vn 0.527300 -0.849700 0.000000
vn 0.000000 0.000000 -1.000000
vn 0.000000 0.000000 1.000000
usemtl None
s off
f 6//1 2//1 1//1
f 6//2 7//2 3//2
f 8//3 4//3 3//3
f 5//4 1//4 4//4
f 2//5 3//5 4//5
f 8//6 7//6 6//6
f 5//1 6//1 1//1
f 2//2 6//2 3//2
f 7//3 8//3 3//3
f 8//4 5//4 4//4
f 1//5 2//5 4//5
f 5//6 8//6 6//6
