# Blender v2.73 (sub 0) OBJ File: 'spider.blend'
# www.blender.org
mtllib BackLeftLimb.mtl
o BackLeftLimb_Cube.022
v -0.242897 -0.352641 -0.580031
v -0.269139 -0.268880 -0.604512
v -0.024452 -0.121422 -0.362274
v 0.001790 -0.205184 -0.337793
v -0.338615 -0.354109 -0.482453
v -0.364857 -0.270348 -0.506934
v -0.120169 -0.122890 -0.264695
v -0.093927 -0.206652 -0.240214
vn -0.653300 -0.393700 -0.646700
vn -0.288000 0.919200 -0.268700
vn 0.653300 0.393700 0.646700
vn 0.288000 -0.919200 0.268700
vn 0.700200 0.010700 -0.713800
vn -0.700200 -0.010700 0.713800
vn 0.288000 -0.919200 0.268600
usemtl None
s off
f 5//1 6//1 2//1
f 7//2 3//2 2//2
f 8//3 4//3 3//3
f 8//4 5//4 1//4
f 2//5 3//5 4//5
f 8//6 7//6 6//6
f 1//1 5//1 2//1
f 6//2 7//2 2//2
f 7//3 8//3 3//3
f 4//7 8//7 1//7
f 1//5 2//5 4//5
f 5//6 8//6 6//6
