# Blender v2.73 (sub 0) OBJ File: 'spider_detached.blend'
# www.blender.org
mtllib BackRightLimb.mtl
o BackRightLimb_Cube.014
v 0.293134 -0.119810 -0.297235
v 0.235311 -0.185848 -0.321716
v -0.018034 -0.053820 -0.079478
v 0.039789 0.012219 -0.054997
v 0.344257 -0.200745 -0.199657
v 0.286433 -0.266784 -0.224138
v 0.033088 -0.134755 0.018101
v 0.090911 -0.068717 0.042582
vn 0.676400 -0.352500 -0.646700
vn -0.634500 -0.724700 -0.268700
vn -0.676400 0.352500 0.646700
vn 0.634500 0.724700 0.268700
vn -0.374000 0.592100 -0.713800
vn 0.374000 -0.592100 0.713800
usemtl None
s off
f 6//1 2//1 1//1
f 7//2 3//2 2//2
f 8//3 4//3 3//3
f 5//4 1//4 4//4
f 1//5 2//5 3//5
f 8//6 7//6 6//6
f 5//1 6//1 1//1
f 6//2 7//2 2//2
f 7//3 8//3 3//3
f 8//4 5//4 4//4
f 4//5 1//5 3//5
f 5//6 8//6 6//6
