# Blender v2.73 (sub 0) OBJ File: 'spider.blend'
# www.blender.org
mtllib BackRightEffector.mtl
o BackRightEffector_Cube.016
v 1.986125 -0.553514 -0.783157
v 1.951111 -0.622889 -0.783157
v 1.875594 -0.584775 -0.783157
v 1.910608 -0.515400 -0.783157
v 1.986125 -0.553514 -0.753157
v 1.951111 -0.622889 -0.753157
v 1.875594 -0.584775 -0.753157
v 1.910608 -0.515400 -0.753157
vn 0.892700 -0.450600 0.000000
vn -0.450600 -0.892700 0.000000
vn -0.892700 0.450600 0.000000
vn 0.450600 0.892700 0.000000
vn -0.000000 0.000000 -1.000000
vn -0.000000 0.000000 1.000000
usemtl None
s off
f 6//1 2//1 1//1
f 7//2 3//2 2//2
f 7//3 8//3 4//3
f 5//4 1//4 4//4
f 1//5 2//5 3//5
f 7//6 6//6 5//6
f 5//1 6//1 1//1
f 6//2 7//2 2//2
f 3//3 7//3 4//3
f 8//4 5//4 4//4
f 4//5 1//5 3//5
f 8//6 7//6 5//6
