# Blender v2.73 (sub 0) OBJ File: 'spider.blend'
# www.blender.org
mtllib FrontLeftUpperLimb.mtl
o FrontLeftUpperLimb_Cube.025
v 0.003697 0.635860 -0.372499
v 0.065572 0.700825 -0.356528
v 0.328303 0.491244 -0.521884
v 0.266429 0.426279 -0.537855
v 0.033314 0.578080 -0.252208
v 0.095188 0.643045 -0.236237
v 0.357920 0.433464 -0.401593
v 0.296046 0.368499 -0.417564
vn -0.701400 0.559500 0.441500
vn 0.679000 0.712900 0.175300
vn 0.701400 -0.559500 -0.441500
vn -0.679000 -0.712900 -0.175300
vn -0.216700 0.422700 -0.880000
vn 0.216700 -0.422700 0.880000
usemtl None
s off
f 6//1 2//1 1//1
f 7//2 3//2 2//2
f 7//3 8//3 4//3
f 5//4 1//4 4//4
f 2//5 3//5 4//5
f 7//6 6//6 5//6
f 5//1 6//1 1//1
f 6//2 7//2 2//2
f 3//3 7//3 4//3
f 8//4 5//4 4//4
f 1//5 2//5 4//5
f 8//6 7//6 5//6
