# Blender v2.73 (sub 0) OBJ File: 'spider_detached.blend'
# www.blender.org
mtllib FrontLeftEffector.mtl
o FrontLeftEffector_Cube.028
v -0.110621 0.021779 -0.037412
v -0.061455 0.081958 -0.037412
v 0.004052 0.028439 -0.037412
v -0.045114 -0.031740 -0.037412
v -0.110621 0.021779 -0.007412
v -0.061455 0.081958 -0.007412
v 0.004052 0.028439 -0.007412
v -0.045114 -0.031740 -0.007412
vn -0.774400 0.632700 0.000000
vn 0.632700 0.774400 -0.000000
vn 0.774400 -0.632700 -0.000000
vn -0.632700 -0.774400 0.000000
vn -0.000000 0.000000 -1.000000
vn 0.000000 -0.000000 1.000000
usemtl None
s off
f 6//1 2//1 1//1
f 7//2 3//2 2//2
f 8//3 4//3 3//3
f 5//4 1//4 4//4
f 2//5 3//5 4//5
f 7//6 6//6 5//6
f 5//1 6//1 1//1
f 6//2 7//2 2//2
f 7//3 8//3 3//3
f 8//4 5//4 4//4
f 1//5 2//5 4//5
f 8//6 7//6 5//6
