# Blender v2.73 (sub 0) OBJ File: 'spider.blend'
# www.blender.org
mtllib FrontLeftLimb.mtl
o FrontLeftLimb_Cube.026
v -0.239204 0.847753 -0.580031
v -0.168487 0.899750 -0.604512
v 0.050379 0.716138 -0.362274
v -0.020338 0.664141 -0.337793
v -0.271647 0.937816 -0.482452
v -0.200929 0.989814 -0.506934
v 0.017937 0.806202 -0.264695
v -0.052780 0.754205 -0.240214
vn -0.584300 0.490200 -0.646700
vn 0.776000 0.570600 -0.268600
vn 0.584300 -0.490200 0.646700
vn -0.776000 -0.570600 0.268600
vn 0.237300 -0.658900 -0.713800
vn -0.237300 0.658900 0.713800
vn 0.776000 0.570600 -0.268700
usemtl None
s off
f 6//1 2//1 1//1
f 6//2 7//2 3//2
f 8//3 4//3 3//3
f 5//4 1//4 4//4
f 2//5 3//5 4//5
f 7//6 6//6 5//6
f 5//1 6//1 1//1
f 2//7 6//7 3//7
f 7//3 8//3 3//3
f 8//4 5//4 4//4
f 1//5 2//5 4//5
f 8//6 7//6 5//6
