# Blender v2.73 (sub 0) OBJ File: 'spider_detached.blend'
# www.blender.org
mtllib FrontRightUpperLimb.mtl
o FrontRightUpperLimb_Cube.009
v 0.282302 0.329134 0.085937
v 0.339889 0.260340 0.101908
v 0.102065 0.022870 -0.063448
v 0.044478 0.091664 -0.079419
v 0.221555 0.306209 0.206228
v 0.279143 0.237416 0.222199
v 0.041319 -0.000055 0.056843
v -0.016268 0.068739 0.040872
vn 0.634900 0.634000 0.441500
vn 0.632000 -0.754900 0.175300
vn -0.634900 -0.634000 -0.441500
vn -0.632000 0.754900 -0.175300
vn 0.444400 0.167700 -0.880000
vn -0.444400 -0.167700 0.880000
usemtl None
s off
f 6//1 2//1 1//1
f 6//2 7//2 3//2
f 8//3 4//3 3//3
f 5//4 1//4 4//4
f 2//5 3//5 4//5
f 7//6 6//6 5//6
f 5//1 6//1 1//1
f 2//2 6//2 3//2
f 7//3 8//3 3//3
f 8//4 5//4 4//4
f 1//5 2//5 4//5
f 8//6 7//6 5//6
