# Blender v2.73 (sub 0) OBJ File: 'spider_detached.blend'
# www.blender.org
mtllib MiddleLeftLowerLimb.mtl
o MiddleLeftLowerLimb_Cube.019
v -0.432858 -0.028330 -0.184793
v -0.426016 0.061724 -0.195524
v -0.073094 0.048011 -0.085580
v -0.079936 -0.042043 -0.074848
v -0.457089 -0.017052 -0.105606
v -0.450247 0.073001 -0.116338
v -0.097324 0.059289 -0.006393
v -0.104166 -0.030765 0.004339
vn -0.954100 0.037100 -0.297200
vn 0.075200 0.990200 -0.118000
vn 0.954100 -0.037100 0.297200
vn -0.075200 -0.990200 0.118000
vn 0.289900 -0.134900 -0.947500
vn -0.289900 0.134900 0.947500
usemtl None
s off
f 5//1 6//1 2//1
f 7//2 3//2 2//2
f 8//3 4//3 3//3
f 5//4 1//4 4//4
f 2//5 3//5 4//5
f 7//6 6//6 5//6
f 1//1 5//1 2//1
f 6//2 7//2 2//2
f 7//3 8//3 3//3
f 8//4 5//4 4//4
f 1//5 2//5 4//5
f 8//6 7//6 5//6
