# Blender v2.73 (sub 0) OBJ File: 'spider.blend'
# www.blender.org
mtllib MiddleRightEffector.mtl
o MiddleRightEffector_Cube.008
v 2.097603 0.443593 -0.783157
v 2.112593 0.367343 -0.783157
v 2.029592 0.351025 -0.783157
v 2.014602 0.427276 -0.783157
v 2.097603 0.443593 -0.753157
v 2.112593 0.367343 -0.753157
v 2.029592 0.351025 -0.753157
v 2.014602 0.427276 -0.753157
vn 0.981200 0.192900 0.000000
vn 0.192900 -0.981200 0.000000
vn -0.981200 -0.192900 0.000000
vn -0.192900 0.981200 0.000000
vn 0.000000 0.000000 -1.000000
vn -0.000000 -0.000000 1.000000
usemtl None
s off
f 6//1 2//1 1//1
f 7//2 3//2 2//2
f 8//3 4//3 3//3
f 5//4 1//4 4//4
f 1//5 2//5 3//5
f 7//6 6//6 5//6
f 5//1 6//1 1//1
f 6//2 7//2 2//2
f 7//3 8//3 3//3
f 8//4 5//4 4//4
f 4//5 1//5 3//5
f 8//6 7//6 5//6
