# Blender v2.73 (sub 0) OBJ File: 'spider_detached.blend'
# www.blender.org
mtllib MiddleLeftLimb.mtl
o MiddleLeftLimb_Cube.018
v -0.312433 -0.000913 -0.290571
v -0.288576 0.083559 -0.315052
v -0.003082 0.073133 -0.072814
v -0.026939 -0.011339 -0.048333
v -0.393360 0.050222 -0.192993
v -0.369504 0.134694 -0.217474
v -0.084010 0.124268 0.024765
v -0.107866 0.039796 0.049246
vn -0.762200 0.027800 -0.646700
vn 0.261800 0.927000 -0.268600
vn 0.762200 -0.027800 0.646700
vn -0.261800 -0.927000 0.268600
vn 0.592000 -0.374100 -0.713800
vn -0.592000 0.374100 0.713800
vn 0.261800 0.927000 -0.268700
usemtl None
s off
f 5//1 6//1 2//1
f 6//2 7//2 3//2
f 8//3 4//3 3//3
f 5//4 1//4 4//4
f 2//5 3//5 4//5
f 7//6 6//6 5//6
f 1//1 5//1 2//1
f 2//7 6//7 3//7
f 7//3 8//3 3//3
f 8//4 5//4 4//4
f 1//5 2//5 4//5
f 8//6 7//6 5//6
