# Blender v2.73 (sub 0) OBJ File: 'spider.blend'
# www.blender.org
mtllib MiddleLeftLowerLimb.mtl
o MiddleLeftLowerLimb_Cube.019
v -0.907912 0.321388 -0.773186
v -0.901070 0.411442 -0.783917
v -0.548148 0.397729 -0.673972
v -0.554990 0.307675 -0.663241
v -0.932143 0.332666 -0.693999
v -0.925301 0.422719 -0.704731
v -0.572378 0.409007 -0.594786
v -0.579221 0.318953 -0.584054
vn -0.954100 0.037100 -0.297200
vn 0.075200 0.990200 -0.118000
vn 0.954100 -0.037100 0.297200
vn -0.075200 -0.990200 0.118000
vn 0.289900 -0.134900 -0.947500
vn -0.289900 0.134900 0.947500
usemtl None
s off
f 6//1 2//1 1//1
f 7//2 3//2 2//2
f 7//3 8//3 4//3
f 5//4 1//4 4//4
f 1//5 2//5 3//5
f 7//6 6//6 5//6
f 5//1 6//1 1//1
f 6//2 7//2 2//2
f 3//3 7//3 4//3
f 8//4 5//4 4//4
f 4//5 1//5 3//5
f 8//6 7//6 5//6
