# Blender v2.73 (sub 0) OBJ File: 'spider_detached.blend'
# www.blender.org
mtllib MiddleRightLimb.mtl
o MiddleRightLimb_Cube.006
v 0.325910 0.105992 -0.268938
v 0.320854 0.018362 -0.293419
v 0.039842 -0.033096 -0.051180
v 0.044899 0.054534 -0.026699
v 0.415969 0.073535 -0.171359
v 0.410912 -0.014096 -0.195840
v 0.129900 -0.065553 0.046398
v 0.134957 0.022077 0.070879
vn 0.750200 0.137400 -0.646700
vn -0.055500 -0.961600 -0.268600
vn -0.750200 -0.137400 0.646700
vn 0.055500 0.961600 0.268700
vn -0.658800 0.237400 -0.713800
vn 0.658800 -0.237400 0.713800
vn -0.055500 -0.961600 -0.268700
usemtl None
s off
f 5//1 6//1 2//1
f 6//2 7//2 3//2
f 8//3 4//3 3//3
f 5//4 1//4 4//4
f 2//5 3//5 4//5
f 7//6 6//6 5//6
f 1//1 5//1 2//1
f 2//7 6//7 3//7
f 7//3 8//3 3//3
f 8//4 5//4 4//4
f 1//5 2//5 4//5
f 8//6 7//6 5//6
