# Blender v2.73 (sub 0) OBJ File: 'spider.blend'
# www.blender.org
mtllib MiddleRightUpperLimb.mtl
o MiddleRightUpperLimb_Cube.003
v 1.144209 0.305096 -0.372499
v 1.154780 0.216005 -0.356528
v 0.825788 0.147327 -0.521884
v 0.815217 0.236418 -0.537855
v 1.080818 0.319138 -0.252208
v 1.091388 0.230048 -0.236237
v 0.762397 0.161370 -0.401593
v 0.751826 0.250460 -0.417564
vn 0.878300 0.183400 0.441500
vn 0.116000 -0.977700 0.175300
vn -0.878300 -0.183400 -0.441500
vn -0.116000 0.977700 -0.175300
vn 0.463700 -0.102700 -0.880000
vn -0.463700 0.102700 0.880000
usemtl None
s off
f 5//1 6//1 2//1
f 7//2 3//2 2//2
f 7//3 8//3 4//3
f 5//4 1//4 4//4
f 2//5 3//5 4//5
f 7//6 6//6 5//6
f 1//1 5//1 2//1
f 6//2 7//2 2//2
f 3//3 7//3 4//3
f 8//4 5//4 4//4
f 1//5 2//5 4//5
f 8//6 7//6 5//6
