# Blender v2.73 (sub 0) OBJ File: 'spider.blend'
# www.blender.org
mtllib Root.mtl
o RootTorso_Cube.001
v 0.695539 -0.082184 -0.533307
v 0.695539 -0.504494 -0.533307
v 0.426473 -0.504494 -0.533307
v 0.426473 -0.082184 -0.533307
v 0.695539 -0.082184 -0.219704
v 0.695539 -0.504494 -0.219704
v 0.426473 -0.504494 -0.219704
v 0.426473 -0.082184 -0.219704
vn 1.000000 0.000000 0.000000
vn 0.000000 -1.000000 0.000000
vn -1.000000 -0.000000 -0.000000
vn -0.000000 1.000000 0.000000
vn 0.000000 0.000000 -1.000000
vn 0.000000 -0.000000 1.000000
usemtl None
s off
f 6//1 2//1 1//1
f 7//2 3//2 2//2
f 8//3 4//3 3//3
f 5//4 1//4 4//4
f 2//5 3//5 4//5
f 7//6 6//6 5//6
f 5//1 6//1 1//1
f 6//2 7//2 2//2
f 7//3 8//3 3//3
f 8//4 5//4 4//4
f 1//5 2//5 4//5
f 8//6 7//6 5//6
o RootHead_Cube.002
v 0.695539 0.334712 -0.550020
v 0.695539 0.077482 -0.550020
v 0.426473 0.077482 -0.550020
v 0.426473 0.334712 -0.550020
v 0.695539 0.334712 -0.329873
v 0.695539 0.077482 -0.329873
v 0.426473 0.077482 -0.329873
v 0.426473 0.334712 -0.329873
vn 1.000000 0.000000 0.000000
vn 0.000000 -1.000000 0.000000
vn -1.000000 0.000000 0.000000
vn 0.000000 1.000000 0.000000
vn 0.000000 0.000000 -1.000000
vn -0.000000 -0.000000 1.000000
usemtl None
s off
f 14//7 10//7 9//7
f 15//8 11//8 10//8
f 16//9 12//9 11//9
f 13//10 9//10 12//10
f 10//11 11//11 12//11
f 16//12 15//12 14//12
f 13//7 14//7 9//7
f 14//8 15//8 10//8
f 15//9 16//9 11//9
f 16//10 13//10 12//10
f 9//11 10//11 12//11
f 13//12 16//12 14//12
