# Blender v2.73 (sub 0) OBJ File: 'pen.blend'
# www.blender.org
mtllib pen.mtl
o Cap_Circle.012
v 0.053961 0.963526 1.936351
v 0.055860 0.984532 1.937813
v 0.073209 0.999656 1.937544
v 0.048273 1.055780 1.935386
v 0.043221 1.036840 1.957119
v -0.006166 1.065290 1.937367
v 0.042202 1.004061 2.306235
v 0.063977 0.968905 1.941128
v 0.071563 1.011490 1.940678
v 0.012872 0.937995 1.945001
v 0.057205 0.984509 1.936569
v -0.061338 0.976308 1.938792
v 0.020069 0.936537 1.940633
v -0.008409 0.942495 1.937799
v 0.032635 0.975104 2.342336
v 0.029487 0.997869 2.383216
v 0.028136 0.991787 2.383237
v 0.060512 0.985764 1.943186
v 0.023225 0.946633 1.942704
v 0.041937 0.946778 1.938392
v 0.058222 0.983781 1.944901
v 0.000633 0.931468 1.945041
v 0.023612 1.001948 2.409345
v 0.008909 0.979548 2.409688
v 0.042777 1.003595 2.306525
v 0.031646 1.010147 2.383185
v 0.055679 1.004733 1.944404
v 0.056496 1.001899 1.615750
v 0.056323 0.999652 1.617081
v 0.056149 0.997404 1.618415
v 0.055976 0.995158 1.620347
v 0.055803 0.992916 1.624078
v 0.055630 0.990679 1.629605
v 0.054590 0.985023 1.734388
v 0.054670 0.990035 1.731419
v 0.053976 1.019992 1.902384
v 0.056310 1.021230 1.936724
v 0.054217 1.019053 1.811375
v 0.060433 1.020653 1.945063
v 0.054590 1.017644 1.734308
v 0.054670 1.014331 1.731359
v 0.055630 1.013188 1.629550
v 0.055803 1.010923 1.624033
v 0.055976 1.008663 1.620313
v 0.056149 1.006408 1.618392
v 0.056323 1.004154 1.617069
v 0.060185 1.019700 1.944352
v 0.024084 1.073142 1.944255
v -0.005576 1.031264 2.409611
v 0.031204 1.011600 2.383194
v -0.076289 1.008596 1.944394
v -0.025353 0.992335 2.410102
v 0.015093 1.022287 2.409089
v -0.022870 1.063511 1.942377
v 0.032272 1.057027 1.943173
v 0.033725 1.065040 1.939786
v -0.013493 1.070536 1.941979
v -0.057666 1.034800 1.939886
v -0.031157 0.943461 1.942272
v 0.031787 1.050937 1.939628
v -0.024526 0.947750 1.944728
v -0.026093 0.938842 1.938025
v 0.062863 1.014612 1.936447
v -0.065456 0.988798 1.939936
v 0.060045 1.020000 1.945611
v -0.054420 1.040403 1.939028
v -0.065310 1.044427 1.940346
v -0.028630 0.933578 1.940682
v 0.029872 1.068666 1.940552
v 0.070462 0.997135 1.943846
v 0.070463 1.004475 1.943554
v 0.051191 1.001967 1.615030
v 0.053876 0.994018 1.939679
v -0.062236 1.002652 1.938556
v -0.057514 0.978922 1.942500
v -0.051769 1.037235 1.938471
v -0.061032 1.014883 1.942412
v -0.034610 1.054427 1.942315
v -0.051725 1.037302 1.938471
v -0.012181 1.063724 1.938406
v -0.034543 1.054471 1.942315
v 0.012102 1.063749 1.942292
v -0.012102 1.063740 1.938406
v 0.034543 1.054461 1.938428
v 0.012181 1.063734 1.942292
v -0.063598 0.984605 1.939746
v -0.060660 1.014763 1.940469
v -0.061849 1.002697 1.940499
vn -0.082200 0.076600 -0.993700
vn -0.431200 -0.598700 -0.675000
vn -0.563200 -0.553700 -0.613400
vn -0.037800 0.535800 -0.843500
vn 0.994100 0.072300 0.081300
vn 0.981800 -0.174100 0.075300
vn 0.954100 0.287900 0.082500
vn -0.055600 0.229100 0.971800
vn -0.922000 0.191400 -0.336700
vn 0.006600 0.172300 0.985000
vn -0.107700 -0.797200 -0.594000
vn 0.051200 -0.218900 -0.974400
vn 0.040700 -0.264000 -0.963700
vn 0.681200 -0.715400 0.155500
vn 0.960700 -0.185600 0.206200
vn 0.884600 -0.380500 0.269500
vn 0.220600 -0.221900 0.949800
vn 0.132600 -0.792800 0.594900
vn 0.215700 -0.312000 0.925300
vn 0.905900 -0.421600 0.039800
vn -0.033800 -0.997700 0.058300
vn 0.980500 0.179200 0.080000
vn 0.972700 0.090900 0.213600
vn -0.783000 -0.367200 -0.502000
vn -0.981700 -0.190300 0.002900
vn -0.462700 -0.870900 0.165400
vn -0.672500 -0.739000 0.039300
vn -0.998000 0.063300 -0.002700
vn -0.999800 0.019400 0.005900
vn -0.299700 0.949700 0.091400
vn 0.207600 0.975300 0.075700
vn -0.991300 0.106700 0.076900
vn 0.218800 -0.945100 0.242700
vn -0.919600 -0.362500 0.151200
vn 0.031900 0.384200 0.922700
vn 0.326200 0.317200 0.890500
vn 0.224400 0.344600 0.911500
vn -0.194000 0.480800 -0.855100
vn -0.274000 0.390200 -0.879000
vn -0.967200 0.178800 -0.180600
vn -0.132300 -0.863700 -0.486300
vn -0.946600 -0.281000 0.157800
vn -0.717600 -0.622800 0.311700
vn -0.293700 -0.541200 0.787900
vn -0.220700 -0.577500 0.786000
vn 0.524400 0.249100 0.814200
vn -0.532500 -0.447100 0.718700
vn 0.610900 0.789100 0.065100
vn 0.924800 -0.102000 0.366700
vn 0.808400 0.559800 0.181900
vn 0.592900 0.804400 0.036900
vn 0.959900 0.274000 0.058500
vn -0.997100 0.076700 -0.000200
vn -0.997800 0.066100 -0.008100
vn -1.000000 -0.000000 -0.005200
vn -0.997200 -0.074600 -0.004200
vn -0.997800 -0.066500 -0.007700
vn -0.999800 -0.019100 -0.005700
vn -0.997000 0.077400 0.000400
vn -0.997100 0.076600 -0.000200
vn -0.997000 0.076900 -0.000100
vn -0.997000 -0.077400 0.000800
vn -0.997000 -0.076900 0.000300
vn -0.997100 -0.076700 0.000200
vn -0.997100 -0.076600 0.000100
usemtl Blue_plastic
s off
f 1//1 2//1 3//1
s 1
f 4//2 5//3 6//4
f 7//5 8//6 9//7
f 10//8 11//9 12//10
f 14//11 1//12 13//13
f 15//14 16//15 17//16
f 18//17 19//18 20//19
f 21//20 15//14 22//21
f 16//15 25//22 26//23
f 4//2 3//24 5//3
f 36//25 37//26 38//27
f 35//28 34//29 11//9
f 49//30 48//31 51//32
f 24//33 52//34 22//21
f 15//14 24//33 22//21
f 54//35 55//36 56//37
f 57//38 4//2 6//4
f 58//39 57//38 6//4
f 10//8 27//40 11//9
f 13//13 59//41 14//11
f 39//42 60//43 37//26
f 19//18 61//44 62//45
f 55//36 63//46 56//37
f 61//44 64//47 62//45
f 20//19 19//18 62//45
f 7//5 9//7 65//48
f 22//21 52//34 51//32
f 52//34 49//30 51//32
f 26//23 23//49 16//15
f 23//49 24//33 17//16
f 23//49 50//50 53//51
f 36//25 38//27 39//42
f 25//22 15//14 21//20
f 47//52 48//31 50//50
f 29//53 33//54 28//55
f 41//56 42//57 28//55
f 24//33 15//14 17//16
f 17//16 16//15 23//49
f 50//50 49//30 53//51
f 50//50 23//49 26//23
f 39//42 37//26 36//25
f 38//27 41//56 39//42
f 41//56 38//27 40//58
f 47//52 26//23 25//22
f 25//22 21//20 47//52
f 25//22 16//15 15//14
f 50//50 26//23 47//52
f 48//31 49//30 50//50
f 30//59 31//60 32//61
f 32//61 29//53 30//59
f 35//28 27//40 28//55
f 33//54 34//29 35//28
f 35//28 11//9 27//40
f 33//54 29//53 32//61
f 28//55 33//54 35//28
f 27//40 39//42 41//56
f 41//56 40//58 42//57
f 45//62 43//63 44//64
f 43//63 45//62 46//65
f 41//56 28//55 27//40
f 46//65 28//55 42//57
f 42//57 43//63 46//65
l 67 68
l 58 86
l 66 64
l 78 79
l 72 73
l 74 75
l 76 77
l 70 71
l 84 85
l 69 67
l 68 8
l 80 81
l 82 83
l 54 66
l 87 88
l 86 59
l 9 69
o Body_Circle.006
v 0.046060 1.005788 0.999106
v 0.046079 1.005395 0.999068
v 0.046034 1.004504 0.998983
v 0.048696 1.004504 0.998983
v 0.048696 1.005788 0.999106
v 0.046034 1.004537 1.012137
v 0.046079 1.005427 1.012047
v 0.046060 1.005819 1.012008
v 0.048696 1.005819 1.012008
v 0.048696 1.004537 1.012137
v 0.000000 0.943771 0.000138
v 0.000000 0.948841 2.064513
v -0.010042 0.954696 2.087786
v -0.003162 0.945227 2.075526
v 0.032137 0.973987 2.203722
v -0.035681 0.969511 2.092652
v -0.045187 0.974953 2.073823
v -0.048696 0.976953 2.063406
v -0.048696 0.971886 0.000069
v -0.030405 0.993205 2.221069
v -0.021100 0.981444 2.221100
v -0.031867 1.004751 2.221041
v 0.048696 0.971886 0.000069
v 0.048696 0.976953 2.063406
v 0.045187 0.974952 2.073823
v 0.035681 0.969511 2.092652
v -0.032137 0.973987 2.203723
v 0.003162 0.945228 2.075528
v 0.010042 0.954696 2.087786
v 0.000000 0.948841 2.064513
v 0.000000 0.943771 0.000138
v -0.048696 0.971886 0.000069
v -0.048696 0.976953 2.063406
v -0.048696 0.984994 2.081729
v -0.048730 0.984990 2.081734
v -0.012801 1.005501 2.218460
v -0.048730 1.025340 2.081633
v -0.048696 1.025335 2.081630
v -0.048696 1.033183 2.063507
v -0.048696 1.028115 -0.000069
v -0.027011 0.987459 2.221084
v -0.027992 0.989294 2.221079
v -0.030013 0.993075 2.221070
v -0.048696 0.984994 2.081729
v -0.048696 0.976953 2.063406
v -0.045187 0.974953 2.073823
v 0.048696 0.976953 2.063406
v 0.048696 0.971886 0.000069
v 0.048696 0.997943 1.005576
v 0.048696 0.998073 1.006859
v 0.048696 0.998450 1.008092
v 0.048696 0.999061 1.009227
v 0.048696 0.999881 1.010222
v 0.048696 1.000880 1.011038
v 0.048696 1.002018 1.011643
v 0.048696 1.003253 1.012014
v 0.048696 1.004537 1.012137
v 0.048696 1.005819 1.012008
v 0.048696 1.007052 1.011630
v 0.048696 1.008188 1.011020
v 0.048696 1.009183 1.010199
v 0.048696 1.009998 1.009200
v 0.048696 1.010603 1.008062
v 0.048696 1.010974 1.006827
v 0.048696 1.011098 1.005544
v 0.048696 1.033183 2.063507
v 0.048696 1.025335 2.081630
v 0.048730 1.025340 2.081632
v 0.012802 1.005501 2.218460
v 0.048730 0.984991 2.081734
v 0.048696 0.984994 2.081729
v 0.048696 1.028115 -0.000069
v 0.048696 1.010968 1.004261
v 0.048696 1.010591 1.003028
v 0.048696 1.009980 1.001892
v 0.048696 1.009160 1.000898
v 0.048696 1.008161 1.000082
v 0.048696 1.007023 0.999477
v 0.048696 1.005788 0.999106
v 0.048696 1.004504 0.998983
v 0.048696 1.003222 0.999112
v 0.048696 1.001989 0.999490
v 0.048696 1.000853 1.000100
v 0.048696 0.999858 1.000921
v 0.048696 0.999043 1.001919
v 0.048696 0.998438 1.003058
v 0.048696 0.998067 1.004293
v -0.048696 1.028115 -0.000069
v -0.048696 1.033183 2.063507
v -0.045103 1.035283 2.074164
v -0.035615 1.040807 2.092931
v -0.045884 1.040005 2.084896
v -0.040073 0.995782 2.208203
v -0.010023 1.055570 2.088001
v 0.000000 1.061300 2.064743
v 0.000000 1.056229 -0.000138
v 0.000000 1.056229 -0.000138
v 0.000000 1.061300 2.064743
v 0.010023 1.055570 2.088001
v 0.003158 1.064954 2.075719
v 0.045887 1.040001 2.084888
v 0.035615 1.040807 2.092931
v 0.045103 1.035283 2.074164
v 0.048696 1.033183 2.063507
v 0.048696 1.028115 -0.000069
v 0.048696 1.033183 2.063507
v 0.045103 1.035283 2.074164
v 0.027011 1.023555 2.220995
v 0.028034 1.021640 2.221000
v 0.030013 1.017939 2.221009
v 0.048696 1.025335 2.081630
v -0.028034 1.021640 2.221000
v -0.027011 1.023555 2.220995
v -0.045103 1.035283 2.074164
v -0.048696 1.033183 2.063507
v -0.048696 1.025335 2.081630
v -0.030013 1.017939 2.221009
v 0.027011 0.987459 2.221084
v 0.045187 0.974952 2.073823
v 0.048696 0.976953 2.063406
v 0.048696 0.984994 2.081729
v 0.030013 0.993075 2.221070
v 0.027992 0.989294 2.221079
v 0.035048 1.005265 2.221574
v 0.033290 1.012231 2.221433
v 0.045194 1.009056 0.004839
v 0.046079 1.000066 0.004861
v 0.046079 1.005395 0.999068
v 0.046060 1.005788 0.999106
v 0.045997 1.007023 0.999477
v 0.045939 1.008161 1.000082
v 0.045889 1.009160 1.000898
v 0.045847 1.009980 1.001892
v 0.045816 1.010591 1.003028
v 0.045797 1.010968 1.004261
v 0.045791 1.011098 1.005544
v 0.045797 1.010974 1.006827
v 0.045816 1.010603 1.008062
v 0.045847 1.009998 1.009200
v 0.045889 1.009183 1.010199
v 0.045939 1.008188 1.011020
v 0.045997 1.007052 1.011630
v 0.046060 1.005819 1.012008
v 0.046079 1.005427 1.012047
v 0.034083 0.998582 2.221565
v 0.034143 1.005506 2.221478
v 0.046079 1.005427 1.012047
v 0.046034 1.004537 1.012137
v 0.045969 1.003253 1.012014
v 0.045907 1.002018 1.011643
v 0.045849 1.000880 1.011038
v 0.045799 0.999881 1.010222
v 0.045757 0.999061 1.009227
v 0.045726 0.998450 1.008092
v 0.045707 0.998073 1.006859
v 0.045701 0.997943 1.005576
v 0.045707 0.998067 1.004293
v 0.045726 0.998438 1.003058
v 0.045757 0.999043 1.001919
v 0.045799 0.999858 1.000921
v 0.045849 1.000853 1.000100
v 0.045907 1.001989 0.999490
v 0.045969 1.003222 0.999112
v 0.046034 1.004504 0.998983
v 0.046079 1.005395 0.999068
v 0.046079 1.000066 0.004861
v 0.045194 0.991076 0.004883
v -0.024348 0.985943 0.000035
v -0.048696 1.028115 -0.000069
v 0.000000 1.056229 -0.000138
v 0.048696 1.028115 -0.000069
v 0.048696 0.971886 0.000069
v 0.000000 0.943771 0.000138
v 0.015764 0.978029 2.221107
v 0.027122 0.987063 2.221085
v 0.031515 0.999854 2.221053
v 0.001399 1.008606 2.217159
v -0.004738 0.973412 2.221118
v -0.021617 0.959623 0.004960
v -0.016734 0.974201 2.221829
v -0.022523 0.978065 2.221814
v -0.029090 0.964619 0.004948
v -0.027444 0.982986 2.221804
v -0.035445 0.970976 0.004932
v -0.004495 0.954429 0.004973
v -0.003480 0.970178 2.221838
v -0.040445 0.978448 0.004914
v -0.031314 0.988771 2.221753
v 0.013312 0.956183 0.004969
v 0.010305 0.971538 2.221835
v -0.033974 0.995204 2.221776
v -0.043883 0.986755 0.004894
v 0.028250 1.020742 2.221003
v 0.022523 0.978066 2.221816
v 0.029090 0.964620 0.004948
v -0.035331 1.008989 2.221742
v -0.045637 1.004561 0.004850
v -0.043881 1.013377 0.004828
v -0.033972 1.015814 2.221725
v -0.012218 1.034999 2.220965
v -0.026318 1.023407 2.220997
v 0.033972 1.015814 2.221725
v 0.043879 1.013377 0.004828
v 0.043884 0.986754 0.004894
v 0.033970 0.995204 2.221775
v -0.040444 1.021684 0.004808
v -0.031311 1.022246 2.221673
v -0.029093 1.035516 0.004774
v -0.022521 1.032953 2.221688
v -0.021617 1.040506 0.004762
v -0.016736 1.036819 2.221674
v -0.013312 1.043949 0.004753
v -0.010306 1.039481 2.221667
v 0.021618 1.040509 0.004762
v 0.016736 1.036819 2.221675
v 0.022521 1.032952 2.221681
v 0.029091 1.035512 0.004774
v 0.048696 1.011034 1.004902
v 0.045794 1.011033 1.004902
v 0.048696 1.010781 1.003644
v 0.045807 1.010779 1.003644
v 0.048696 1.010289 1.002461
v 0.045832 1.010289 1.002461
v 0.048696 1.009569 1.001394
v 0.045868 1.009572 1.001394
v 0.045968 1.007590 0.999786
v 0.048696 1.007592 0.999779
v 0.048696 1.008654 1.000490
v 0.045914 1.008661 1.000497
v 0.046028 1.006406 0.999289
v 0.048696 1.006405 0.999287
v 0.048696 1.003863 0.999049
v 0.046002 1.003863 0.999048
v 0.048696 1.001451 1.011343
v 0.045878 1.001449 1.011346
v 0.048696 0.998740 1.002488
v 0.045742 0.998738 1.002488
v -0.013312 0.956183 0.004969
v -0.010305 0.971539 2.221834
v 0.004495 0.954430 0.004973
v 0.003480 0.970176 2.221839
v 0.021617 0.959625 0.004960
v 0.016735 0.974199 2.221828
v -0.035331 1.002030 2.221759
v -0.045636 0.995571 0.004872
v 0.009368 1.036386 2.220963
v 0.027441 0.982988 2.221804
v 0.035447 0.970975 0.004932
v 0.040443 0.978448 0.004914
v 0.031314 0.988771 2.221754
v -0.035447 1.029155 0.004790
v -0.027442 1.028027 2.221692
v -0.004495 1.045702 0.004749
v -0.003480 1.040841 2.221664
v 0.003480 1.040839 2.221664
v 0.004495 1.045702 0.004749
v 0.013312 1.043948 0.004753
v 0.010306 1.039482 2.221669
v 0.027443 1.028029 2.221697
v 0.035443 1.029158 0.004789
v 0.031313 1.022246 2.221672
v 0.040442 1.021683 0.004808
v 0.048696 1.009595 1.009704
v 0.045868 1.009594 1.009703
v 0.048696 1.008685 1.010609
v 0.045914 1.008684 1.010608
v 0.045968 1.007621 1.011327
v 0.048696 1.007619 1.011323
v 0.048696 1.006436 1.011820
v 0.046028 1.006437 1.011821
v 0.048696 1.003895 1.012074
v 0.046002 1.003895 1.012076
v 0.048696 1.002606 0.999302
v 0.045938 1.002605 0.999302
v 0.045938 1.002637 1.011827
v 0.048696 1.002636 1.011830
v 0.048696 1.000377 1.010631
v 0.045824 1.000377 1.010631
v 0.045778 0.999453 1.001422
v 0.048696 0.999452 1.001421
v 0.048696 0.999465 1.009721
v 0.045778 0.999472 1.009721
v 0.045742 0.998756 1.008658
v 0.048696 0.998756 1.008657
v 0.048696 0.998260 1.007476
v 0.045717 0.998260 1.007477
v 0.045704 0.998005 1.004934
v 0.048696 0.998004 1.004934
v 0.045794 1.011036 1.006185
v 0.048696 1.011035 1.006185
v 0.045807 1.010788 1.007443
v 0.048696 1.010789 1.007444
v 0.045832 1.010297 1.008630
v 0.048696 1.010300 1.008631
v 0.045878 1.001421 0.999792
v 0.048696 1.001423 0.999796
v 0.045824 1.000355 1.000509
v 0.048696 1.000357 1.000512
v 0.045717 0.998253 1.003675
v 0.048696 0.998253 1.003675
v 0.045704 0.998009 1.006218
v 0.048696 0.998008 1.006217
vn -0.000100 -0.095300 0.995400
vn 0.000100 -0.100200 -0.995000
vn 0.000000 -0.094900 0.995500
vn 0.000000 -0.096200 0.995400
vn 0.000000 -0.100600 -0.994900
vn 0.000000 -0.099300 -0.995100
vn -0.000200 0.002400 1.000000
vn 0.000000 -0.002500 -1.000000
vn -0.000000 -0.002400 -1.000000
vn -0.000100 0.002500 1.000000
vn 0.450800 0.859900 0.239400
vn 0.418600 0.841900 0.340600
vn 0.451800 0.862800 0.226700
vn -0.998700 0.050200 0.000200
vn -0.994900 0.101000 -0.000500
vn -0.574300 0.818600 -0.005600
vn 0.104700 -0.146900 -0.983600
vn 0.153300 -0.074900 -0.985300
vn 1.000000 0.000000 0.000000
vn -0.495400 -0.844800 0.202100
vn -0.479200 -0.869200 0.121700
vn -0.500000 -0.866000 0.002100
vn 0.500000 -0.866000 0.002100
vn 0.495400 -0.844800 0.202100
vn -0.873400 -0.450600 0.184600
vn -0.873800 -0.464400 0.144200
vn -0.886600 -0.434800 0.157600
vn 0.873400 0.451800 0.181800
vn 0.873900 0.465000 0.141900
vn 0.885500 0.437600 0.156000
vn 0.873800 -0.464400 0.144200
vn 0.886700 -0.434700 0.157600
vn 0.872900 -0.466200 0.144100
vn -0.801500 -0.001500 -0.597900
vn -0.830300 -0.000700 -0.557300
vn -0.903000 -0.427200 0.046200
vn -0.885500 0.437600 0.156000
vn -0.872900 0.466900 0.141800
vn -0.873900 0.465000 0.141900
vn -0.968900 -0.247300 -0.008900
vn -0.994800 -0.101600 0.000500
vn 0.038700 -0.999300 0.001700
vn -0.500000 0.866000 -0.002100
vn 0.804100 -0.001500 -0.594500
vn -0.999900 0.008600 -0.009800
vn -0.998700 0.049500 -0.009900
vn -0.998700 0.050400 -0.009700
vn -0.998700 0.050700 -0.000100
vn -0.998700 0.050500 -0.000300
vn -0.995200 0.097900 -0.000500
vn -0.999900 0.011700 -0.009800
vn -0.998600 0.052300 -0.009600
vn -0.998400 0.054800 -0.009600
vn -0.998700 0.050400 0.000200
vn -0.998300 0.057200 -0.009600
vn -0.998700 0.050800 0.000200
vn -0.998100 0.061400 -0.009600
vn -0.998700 0.050600 0.000200
vn -0.997700 0.067200 -0.009600
vn -0.998700 0.051300 0.000200
vn -0.996800 0.079600 -0.009600
vn -0.998700 0.051500 0.000200
vn -0.990900 0.134500 -0.009500
vn -0.998700 0.051600 0.000200
vn 0.500000 0.866000 -0.002100
vn -0.519000 -0.792300 0.320700
vn -0.459800 -0.833600 0.306000
vn 0.459800 -0.833600 0.306000
vn 0.519000 -0.792300 0.320700
vn 0.479200 -0.869200 0.121700
vn -0.863900 -0.461300 0.202400
vn -0.872900 -0.466200 0.144100
vn 0.863900 0.462200 0.200200
vn 0.872900 0.466900 0.141800
vn 0.872800 0.467100 0.141800
vn 0.873500 -0.450500 0.184600
vn 0.863900 -0.461200 0.202400
vn -1.000000 0.000000 0.000000
vn -0.967300 0.000300 0.253800
vn -0.155700 -0.982700 -0.100300
vn -0.873400 0.451800 0.181800
vn -0.863900 0.462200 0.200200
vn -0.872800 0.467100 0.141800
vn -0.998800 -0.048600 0.000700
vn -0.998800 -0.049900 0.000700
vn -0.998700 -0.050100 -0.010300
vn -0.969500 -0.244900 -0.008900
vn -0.998700 -0.051200 0.000700
vn -0.998600 -0.052100 -0.010300
vn -0.998700 -0.050800 0.000700
vn -0.998400 -0.055600 -0.010200
vn -0.998700 -0.051600 0.000700
vn -0.998300 -0.057900 -0.010200
vn -0.998600 -0.052000 0.000700
vn -0.998000 -0.062500 -0.010200
vn -0.998600 -0.052500 0.000700
vn -0.997600 -0.069000 -0.010200
vn -0.998600 -0.053000 0.000700
vn -0.996500 -0.082700 -0.010200
vn -0.989300 -0.145700 -0.010000
vn -0.995200 -0.098000 0.000500
vn -0.422400 0.878800 0.221800
vn -0.329200 0.883800 0.332500
vn -0.399500 0.859000 0.320100
vn -0.483100 0.870100 0.097600
vn 0.899400 -0.434700 0.045000
vn 0.967200 0.001500 0.253900
vn 0.821900 -0.000800 -0.569600
vn 0.150500 -0.983400 -0.100900
usemtl Acrylic.001
s off
f 92//66 93//66 90//66
f 98//67 95//67 97//67
f 90//68 91//68 92//68
f 93//69 89//69 90//69
f 95//70 98//70 94//70
f 95//71 96//71 97//71
s 1
f 108//72 109//72 110//72
f 256//73 257//73 258//73
f 256//73 258//73 259//73
f 256//73 259//73 260//73
f 256//74 260//74 261//74
f 262//75 263//75 264//75
f 188//76 265//77 189//78
f 245//79 255//80 244//81
f 190//82 187//83 189//78
f 168//84 136//84 160//84
f 101//85 104//86 105//87
f 118//88 113//88 117//89
f 134//90 129//91 132//92
f 195//93 196//94 199//95
f 206//96 209//97 211//98
f 122//99 123//100 126//101
f 204//102 200//103 201//104
f 213//105 214//106 224//107
f 178//108 183//108 177//108
f 259//73 260//73 256//73
f 159//109 135//84 154//84
f 234//110 235//111 236//112
f 252//113 253//114 254//115
f 233//116 236//112 237//117
f 255//80 252//113 254//115
f 233//116 237//117 238//118
f 255//80 251//119 252//113
f 233//116 238//118 239//120
f 255//80 250//121 251//119
f 233//116 239//120 240//122
f 255//80 249//123 250//121
f 233//116 240//122 241//124
f 255//80 248//125 249//123
f 233//116 241//124 242//126
f 255//80 247//127 248//125
f 233//116 242//126 243//128
f 255//80 246//129 247//127
f 233//116 243//128 244//81
f 255//80 245//79 246//129
f 244//81 255//80 233//116
f 233//116 234//110 236//112
f 191//130 186//130 187//83
f 186//130 191//130 192//130
f 192//130 185//130 186//130
f 185//130 192//130 193//130
f 190//82 191//130 187//83
f 187//83 188//76 189//78
f 160//84 154//84 153//84
f 175//84 137//84 136//84
f 160//84 153//84 161//84
f 174//84 175//84 136//84
f 160//84 161//84 162//84
f 173//84 174//84 136//84
f 160//84 162//84 163//84
f 172//84 173//84 136//84
f 160//84 163//84 164//84
f 171//84 172//84 136//84
f 160//84 164//84 165//84
f 170//84 171//84 136//84
f 160//84 165//84 166//84
f 169//84 170//84 136//84
f 160//84 166//84 167//84
f 168//84 169//84 136//84
f 160//84 167//84 168//84
f 106//87 99//87 100//87
f 99//87 106//87 107//87
f 101//85 102//131 103//132
f 100//87 105//87 106//87
f 101//85 103//132 104//86
f 105//87 100//87 101//85
f 115//133 116//134 117//89
f 112//88 118//88 119//88
f 119//88 111//88 112//88
f 117//89 113//88 114//135
f 114//135 115//133 117//89
f 113//88 118//88 112//88
f 132//92 133//136 134//90
f 130//137 131//137 132//92
f 132//92 129//91 130//137
f 199//95 194//138 195//93
f 197//139 198//140 199//95
f 199//95 196//94 197//139
f 209//97 210//98 211//98
f 209//97 206//96 207//141
f 207//141 208//142 209//97
f 128//143 120//143 121//143
f 121//143 127//143 128//143
f 124//144 125//145 126//101
f 126//101 123//100 124//144
f 126//101 127//143 122//99
f 121//143 122//99 127//143
f 202//146 203//147 204//102
f 204//102 201//104 202//146
f 204//102 205//148 200//103
f 214//106 216//149 217//150
f 213//105 232//151 212//152
f 214//106 217//150 218//153
f 213//105 231//154 232//151
f 214//106 218//153 219//155
f 213//105 230//156 231//154
f 214//106 219//155 220//157
f 213//105 229//158 230//156
f 214//106 220//157 221//159
f 213//105 228//160 229//158
f 214//106 221//159 222//161
f 213//105 227//162 228//160
f 214//106 222//161 223//163
f 213//105 226//164 227//162
f 214//106 223//163 224//107
f 213//105 225//165 226//164
f 214//106 215//166 216//149
f 224//107 225//165 213//105
f 179//167 180//168 181//169
f 182//170 178//108 179//167
f 184//108 176//108 177//108
f 177//108 183//108 184//108
f 179//167 181//169 182//170
f 182//170 183//108 178//108
f 256//73 258//73 259//73
f 258//73 256//73 257//73
f 155//171 157//172 158//173
f 159//109 154//84 155//171
f 155//171 156//174 157//172
f 137//84 135//84 136//84
f 155//171 158//173 159//109
f 152//84 153//84 154//84
f 138//84 135//84 137//84
f 151//84 152//84 154//84
f 139//84 135//84 138//84
f 150//84 151//84 154//84
f 140//84 135//84 139//84
f 149//84 150//84 154//84
f 141//84 135//84 140//84
f 148//84 149//84 154//84
f 142//84 135//84 141//84
f 147//84 148//84 154//84
f 143//84 135//84 142//84
f 146//84 147//84 154//84
f 144//84 135//84 143//84
f 135//84 145//84 154//84
f 145//84 135//84 144//84
f 154//84 145//84 146//84
l 290 291
l 367 368
l 332 333
l 371 372
l 277 278
l 363 364
l 387 388
l 273 274
l 359 360
l 262 266
l 269 270
l 355 356
l 334 288
l 322 323
l 109 266
l 341 342
l 282 283
l 337 338
l 286 287
l 379 380
l 373 374
l 310 311
l 296 297
l 347 348
l 314 315
l 308 309
l 383 384
l 318 319
l 304 305
l 279 280
l 300 301
l 351 352
l 326 327
l 365 366
l 330 331
l 110 289
l 292 293
l 288 289
l 275 276
l 369 370
l 335 336
l 357 358
l 267 268
l 361 362
l 264 281
l 271 272
l 324 325
l 353 354
l 320 321
l 339 340
l 284 285
l 334 281
l 302 303
l 377 378
l 312 313
l 375 376
l 306 307
l 343 344
l 381 382
l 316 317
l 294 295
l 345 346
l 385 386
l 328 329
l 298 299
l 349 350
l 389 390
