# Blender v2.72 (sub 0) OBJ File: ''
# www.blender.org
mtllib race_tight.mtl
o Plane.003
v 10.961411 6.623157 -3.937656
v 10.961411 6.623156 2.367467
v 30.952940 6.041068 -3.937656
v 30.952940 6.041067 2.367467
vt -0.000000 1.000000
vt 0.000000 0.000000
vt 1.000000 1.000000
vt 1.000000 0.000000
vn 0.029100 0.999600 0.000000
usemtl Default-Diffuse.003
s off
f 1/1/1 2/2/1 3/3/1
f 3/3/1 2/2/1 4/4/1
o Cube.028_Cube.030
v 16.102079 7.068244 -4.158162
v 16.102079 6.368245 -4.158162
v 16.102079 6.368245 2.495449
v 16.202082 7.068244 -4.158162
v 16.202082 6.368245 -4.158162
v 16.202082 7.068244 2.495449
v 16.202082 6.368245 2.495449
v 16.102079 7.068244 2.495449
vt -0.000000 1.000000
vn -1.000000 0.000000 0.000000
vn 0.000000 0.000000 -1.000000
vn 1.000000 0.000000 0.000000
vn 0.000000 0.000000 1.000000
vn 0.000000 -1.000000 0.000000
vn 0.000000 1.000000 0.000000
usemtl None
s off
f 5/5/2 6/5/2 7/5/2
f 8/5/3 9/5/3 6/5/3
f 10/5/4 11/5/4 9/5/4
f 12/5/5 7/5/5 11/5/5
f 6/5/6 9/5/6 11/5/6
f 8/5/7 5/5/7 12/5/7
f 12/5/2 5/5/2 7/5/2
f 5/5/3 8/5/3 6/5/3
f 8/5/4 10/5/4 9/5/4
f 10/5/5 12/5/5 11/5/5
f 7/5/6 6/5/6 11/5/6
f 10/5/7 8/5/7 12/5/7
o Cube.028_Cube.001
v 17.634308 15.525074 -5.937305
v 17.634308 7.346625 -5.937305
v 17.634308 7.346625 4.489932
v 17.163412 15.525074 -5.937305
v 17.163412 7.346625 -5.937305
v 17.163412 15.525074 4.489932
v 17.163412 7.346625 4.489932
v 17.634308 15.525074 4.489932
vt -0.000000 1.000000
vn -1.000000 0.000000 0.000000
vn 0.000000 0.000000 1.000000
vn 1.000000 0.000000 0.000000
vn 0.000000 0.000000 -1.000000
vn 0.000000 1.000000 0.000000
vn 0.000000 -1.000000 0.000000
usemtl None.002
s off
f 13/6/8 14/6/8 15/6/8
f 16/6/9 17/6/9 14/6/9
f 18/6/10 19/6/10 17/6/10
f 20/6/11 15/6/11 19/6/11
f 14/6/12 17/6/12 19/6/12
f 16/6/13 13/6/13 20/6/13
f 20/6/8 13/6/8 15/6/8
f 13/6/9 16/6/9 14/6/9
f 16/6/10 18/6/10 17/6/10
f 18/6/11 20/6/11 19/6/11
f 15/6/12 14/6/12 19/6/12
f 18/6/13 16/6/13 20/6/13
