# Blender v2.71 (sub 0) OBJ File: ''
# www.blender.org
mtllib r_upperleg.mtl
o zoey_color_bmp_013_zoey_color_bmp.013
v 3.149904 2.016363 4.200903
v 2.125498 3.131173 3.712204
v 2.352458 2.966883 3.065601
v -0.047272 3.440153 3.333702
v -0.041782 3.525623 2.448105
v -2.154902 2.636233 3.105701
v 2.063698 3.180562 2.380302
v -3.062662 0.674983 3.089001
v -2.171402 2.613093 3.668102
v -2.009062 2.535812 2.114605
v -0.017282 3.322233 1.864403
v -2.054022 2.695343 1.502804
v 0.004918 3.382412 1.229702
v -1.870212 2.611793 0.965805
v -2.945712 0.704293 1.532703
v -3.057652 0.712993 0.934002
v -2.832692 -1.251586 1.657303
v -2.853802 -1.329714 2.297401
v -3.164792 0.710543 2.065102
v -2.811572 -1.173438 1.017101
v -2.841432 -1.394371 3.248402
v -3.203572 0.630323 3.560904
v -2.791442 -1.464180 4.078503
v -3.089682 0.561463 5.560904
v -2.554202 -1.582051 5.481104
v -1.963482 -1.722613 8.147705
v -2.710992 0.476043 8.528505
v -1.753902 -1.632760 10.472400
v -2.211872 0.349003 10.983001
v -1.656152 -1.642747 12.151600
v -2.157882 0.335413 13.122100
v -1.646462 2.203083 11.176800
v -1.850682 2.478803 8.425905
v -0.086862 3.434843 8.403203
v -0.109932 3.462842 5.524303
v -2.002742 2.564933 5.518503
v -1.539962 2.091083 12.754100
v -0.037432 3.175163 11.370200
v 1.442648 2.990753 8.417904
v 1.657408 3.001283 5.685703
v 1.951758 2.983343 4.100103
v -0.024152 3.423343 3.771000
v 1.242648 2.686643 11.362100
v -0.050942 3.013533 12.683599
v -1.905782 0.312573 13.727000
v -1.430912 1.977852 13.786500
v -0.064442 2.764333 13.996900
v 1.261728 2.518212 12.675900
v 2.584857 1.066163 11.179399
v 2.698861 1.432633 8.030804
v 2.856153 1.579963 5.886204
v 2.629618 0.951073 12.456599
v -1.665712 0.058533 14.915700
v -1.293792 1.736093 15.415600
v -1.745692 -0.072227 15.669600
v -1.248652 1.720093 16.133900
v -0.053282 2.447722 15.443700
v 1.280808 2.382263 13.989599
v 2.674379 0.864423 13.733900
v 2.670265 -0.571315 13.406300
v 2.725909 -0.511365 12.039400
v 2.781603 -0.421887 10.672500
v 2.997320 -0.373157 7.637903
v 3.211985 -0.368947 5.724903
v 2.728711 -0.527570 14.728600
v 2.679163 0.616093 14.975100
v 2.655863 0.474373 15.675600
v 2.758123 -0.726651 15.414800
v -0.008352 2.319172 16.157001
v 1.364268 1.873693 16.067400
v 1.325108 2.090763 15.349099
v -1.527412 -1.495827 13.278199
v -1.419212 -1.699832 14.010200
v -1.507752 -1.814003 15.126900
v 3.310829 -0.249077 4.693302
v 3.310829 -0.249077 4.693302
v 2.253378 -3.598047 3.864504
v 2.744804 -2.747487 4.527103
v 0.074898 -3.472967 4.758102
v 0.379678 -3.318687 5.801304
v -1.440572 -2.837417 5.672403
v -1.090922 -2.802467 7.893904
v -1.963482 -1.722613 8.147705
v 2.730640 -2.382672 5.564302
v 1.853158 -4.593007 2.134502
v 1.954488 -4.367437 2.918804
v 0.034638 -3.860607 4.003103
v -1.771182 -2.848627 4.414703
v -2.554202 -1.582051 5.481104
v -2.791442 -1.464180 4.078503
v -1.935842 -3.011977 3.584904
v 0.001498 -4.301107 2.948303
v 0.007438 -4.484467 2.123703
v -2.811572 -1.173438 1.017101
v -2.832692 -1.251586 1.657303
v -2.000672 -3.264047 1.938404
v -2.853802 -1.329714 2.297401
v -2.005472 -3.185787 2.637302
v -2.841432 -1.394371 3.248402
v -1.507752 -1.814003 15.126900
v -0.552242 -2.496437 15.121500
v -1.419212 -1.699832 14.010200
v -0.396862 -2.219312 13.847700
v 0.516658 -2.797227 15.059299
v 0.547488 -2.400732 13.427299
v 0.623648 -2.606677 13.929399
v 2.092588 -2.049523 15.143600
v 2.758123 -0.726651 15.414800
v 2.359798 -1.831553 14.516600
v 2.224138 -1.603451 13.039800
v 0.518458 -2.787777 11.657400
v 2.341348 -1.821681 11.614200
v 2.358288 -1.925934 10.262600
v 2.781603 -0.421887 10.672500
v 2.997320 -0.373157 7.637903
v 2.548136 -2.208651 7.501904
v 3.211985 -0.368947 5.724903
v 2.725909 -0.511365 12.039400
v 2.670265 -0.571315 13.406300
v 2.728711 -0.527570 14.728600
v 0.544568 -2.924417 10.072499
v 0.595108 -3.198867 7.509001
v -0.853392 -2.671577 10.159400
v -0.749732 -2.442807 11.826699
v -0.557182 -2.226912 13.382001
v -1.753902 -1.632760 10.472400
v -1.656152 -1.642747 12.151600
v -1.527412 -1.495827 13.278199
vt 0.121533 0.541790
vt 0.158257 0.552394
vt 0.165350 0.542819
vt 0.123929 0.528357
vt 0.085403 0.534467
vt 0.161277 0.531184
vt 0.051049 0.531275
vt 0.083699 0.542763
vt 0.088125 0.519375
vt 0.125031 0.518980
vt 0.090402 0.510043
vt 0.055415 0.507257
vt 0.092480 0.501560
vt 0.056366 0.498063
vt 0.024144 0.505516
vt 0.021309 0.515570
vt 0.053483 0.515812
vt 0.027007 0.495635
vt 0.126553 0.509200
vt 0.018119 0.530704
vt 0.049046 0.538619
vt 0.015063 0.544236
vt 0.044656 0.569165
vt 0.010930 0.567731
vt 0.003764 0.613095
vt 0.039579 0.616680
vt 0.003918 0.652953
vt 0.036243 0.657408
vt 0.005487 0.681711
vt 0.038614 0.692100
vt 0.066225 0.658730
vt 0.072395 0.615401
vt 0.101849 0.617949
vt 0.111946 0.574596
vt 0.080053 0.570665
vt 0.065496 0.683695
vt 0.094515 0.663317
vt 0.124058 0.623383
vt 0.137863 0.582363
vt 0.153529 0.558666
vt 0.120399 0.548460
vt 0.114765 0.667659
vt 0.091627 0.683198
vt 0.038186 0.702798
vt 0.064708 0.700480
vt 0.088780 0.703755
vt 0.112215 0.687584
vt 0.146072 0.674379
vt 0.153081 0.627489
vt 0.159998 0.595368
vt 0.176809 0.568391
vt 0.143401 0.693283
vt 0.036348 0.723212
vt 0.064321 0.726912
vt 0.036855 0.735602
vt 0.065918 0.738230
vt 0.086649 0.727076
vt 0.109623 0.707492
vt 0.140741 0.712060
vt 0.163172 0.714357
vt 0.166668 0.694596
vt 0.170109 0.675065
vt 0.179986 0.632781
vt 0.186078 0.607877
vt 0.158007 0.732788
vt 0.140100 0.730890
vt 0.138726 0.741188
vt 0.157728 0.742826
vt 0.086796 0.738379
vt 0.108902 0.740257
vt 0.108819 0.728890
vt 0.008770 0.701170
vt 0.006105 0.714363
vt 0.008611 0.732588
vt 0.185852 0.595081
vt 0.894192 0.882223
vt 0.876996 0.875930
vt 0.886014 0.924199
vt 0.868725 0.925783
vt 0.876547 0.954963
vt 0.840740 0.958991
vt 0.840533 0.980835
vt 0.859493 0.887421
vt 0.899059 0.920622
vt 0.913387 0.885312
vt 0.896704 0.955186
vt 0.883157 0.980983
vt 0.905027 0.981918
vt 0.909930 0.953988
vt 0.916440 0.916812
vt 0.926209 0.885714
vt 0.929174 0.914684
vt 0.935124 0.950281
vt 0.932619 0.982627
vt 0.942633 0.983015
vt 0.924544 0.951838
vt 0.917873 0.982466
vt 0.724072 0.970722
vt 0.744938 0.985326
vt 0.745000 0.967336
vt 0.726821 0.987906
vt 0.723074 0.954525
vt 0.749597 0.950852
vt 0.740328 0.951465
vt 0.719975 0.928339
vt 0.716042 0.905456
vt 0.729142 0.923390
vt 0.751491 0.920578
vt 0.777626 0.947618
vt 0.772341 0.917175
vt 0.791988 0.913363
vt 0.780037 0.891526
vt 0.818092 0.877300
vt 0.831903 0.900727
vt 0.838714 0.864870
vt 0.762340 0.898030
vt 0.744776 0.903017
vt 0.726028 0.902790
vt 0.801924 0.942235
vt 0.841229 0.931753
vt 0.849384 0.859903
vt 0.804658 0.963215
vt 0.778196 0.967599
vt 0.753024 0.969029
vt 0.803166 0.984436
vt 0.775991 0.986528
vt 0.757774 0.988291
vn -0.103000 0.993000 0.057100
vn 0.282100 0.938900 0.197400
vn 0.176300 0.984200 0.015200
vn -0.109600 0.987300 -0.114600
vn -0.690600 0.720000 -0.067900
vn 0.164700 0.973000 0.161800
vn -0.975500 0.197800 -0.096500
vn -0.678700 0.733500 0.034800
vn -0.693000 0.720800 0.010700
vn -0.228000 0.955600 -0.186500
vn -0.664100 0.745400 -0.057600
vn -0.967100 0.230100 -0.108000
vn -0.610700 0.753800 -0.242600
vn -0.960400 0.210400 0.182600
vn -0.991200 -0.107500 -0.076800
vn -0.991100 -0.133200 -0.005300
vn -0.968500 0.214700 -0.125800
vn -0.997500 -0.071200 -0.000000
vn -0.387900 0.918800 0.073500
vn -0.989500 -0.144400 0.001400
vn -0.983800 0.151000 -0.096600
vn -0.976000 -0.203200 0.078300
vn -0.987900 0.110500 0.109000
vn -0.954400 -0.244800 0.171000
vn -0.940500 -0.316700 0.123200
vn -0.989900 0.030200 0.138600
vn -0.956100 -0.273700 0.104400
vn -0.992500 0.013000 0.121300
vn -0.960000 -0.269200 0.076700
vn -0.980200 0.018300 0.196900
vn -0.779000 0.616100 0.116800
vn -0.720300 0.687300 0.093800
vn -0.114200 0.991700 0.058200
vn -0.110000 0.993900 0.002300
vn -0.674700 0.735900 0.056900
vn -0.772700 0.624600 0.112700
vn -0.095600 0.989000 0.112700
vn 0.556500 0.827400 0.075600
vn 0.502300 0.860300 0.087000
vn 0.391700 0.879900 0.269000
vn -0.096800 0.994700 0.033500
vn 0.577000 0.809300 0.109500
vn -0.092200 0.984300 0.150600
vn -0.956800 0.015800 0.290200
vn -0.776300 0.604500 0.178500
vn -0.120100 0.975700 0.183300
vn 0.563000 0.821400 0.090800
vn 0.921600 0.384400 0.053900
vn 0.913200 0.398800 0.083400
vn 0.900100 0.402100 0.167600
vn 0.817900 0.520200 0.246100
vn 0.928900 0.370200 0.007300
vn -0.998600 0.041300 0.032400
vn -0.809800 0.578000 0.100100
vn -0.993800 0.082400 -0.075300
vn -0.758600 0.645800 0.086800
vn -0.120900 0.975100 0.186000
vn 0.520000 0.845100 0.124200
vn 0.928200 0.371000 0.028700
vn 0.999700 0.021300 -0.014300
vn 0.996600 0.078500 0.026900
vn 0.991300 0.120800 0.053100
vn 0.984600 0.152700 0.085600
vn 0.979200 0.169500 0.111900
vn 0.998900 0.045900 -0.010600
vn 0.927200 0.364200 0.086800
vn 0.920200 0.379700 0.095100
vn 0.995900 0.088500 -0.017000
vn -0.077200 0.976800 0.199800
vn 0.558500 0.802000 0.211900
vn 0.528000 0.829300 0.182700
vn -0.953300 -0.268400 0.138500
vn -0.985100 -0.169800 0.027200
vn -0.990900 -0.094400 -0.096000
vn 0.978000 0.145600 0.149500
vn 0.189700 -0.749600 0.634100
vn 0.591800 -0.719200 0.364000
vn -0.078700 -0.944300 0.319500
vn 0.069400 -0.990600 0.117400
vn -0.536200 -0.833000 0.136100
vn -0.506700 -0.855200 0.108900
vn -0.753200 -0.647000 0.118900
vn 0.776100 -0.606500 0.172600
vn -0.167900 -0.886400 0.431200
vn 0.034500 -0.902800 0.428800
vn -0.620000 -0.753500 0.218600
vn -0.773400 -0.619600 0.134000
vn -0.843200 -0.531400 0.081700
vn -0.685900 -0.694400 0.217600
vn -0.263500 -0.920500 0.288500
vn -0.036000 -0.963900 0.263800
vn -0.285200 -0.937900 0.197500
vn -0.754800 -0.653500 0.056600
vn -0.913700 -0.404400 -0.039700
vn -0.917400 -0.390200 -0.077900
vn -0.736300 -0.666700 0.115100
vn -0.890800 -0.453900 0.020900
vn -0.407800 -0.888000 -0.212600
vn -0.538400 -0.833000 -0.127500
vn -0.344300 -0.935400 -0.080300
vn -0.576900 -0.806700 -0.128200
vn 0.043000 -0.983000 -0.178700
vn 0.071900 -0.992700 -0.096200
vn 0.065600 -0.965500 -0.252100
vn 0.636900 -0.770900 0.006900
vn 0.946300 -0.322600 -0.022800
vn 0.769500 -0.636300 -0.054300
vn 0.752600 -0.658500 -0.005800
vn 0.126200 -0.980000 0.153500
vn 0.766400 -0.634400 0.100900
vn 0.774700 -0.626700 0.084600
vn 0.957600 -0.284900 0.042500
vn 0.963400 -0.250800 0.094500
vn 0.768300 -0.630900 0.107500
vn 0.967000 -0.239300 0.087600
vn 0.943400 -0.327400 0.053700
vn 0.935700 -0.349700 -0.046000
vn 0.962600 -0.260100 -0.075600
vn 0.151900 -0.983600 0.097100
vn 0.144300 -0.986400 0.078100
vn 0.969500 -0.233700 0.073400
vn -0.481600 -0.869500 0.109800
vn -0.458100 -0.876100 0.150200
vn -0.372600 -0.920300 0.118900
vn -0.717100 -0.690500 0.094200
vn -0.630500 -0.767400 0.116600
vn -0.604100 -0.795800 0.042200
usemtl zoey_color_bmp_005.001
s 1
f 4/1/1 2/2/2 3/3/3
f 4/1/1 3/3/3 5/4/4
f 6/5/5 4/1/1 5/4/4
f 7/6/6 5/4/4 3/3/3
f 8/7/7 9/8/8 6/5/5
f 8/7/7 6/5/5 10/9/9
f 6/5/5 5/4/4 10/9/9
f 11/10/10 10/9/9 5/4/4
f 7/6/6 11/10/10 5/4/4
f 11/10/10 12/11/11 10/9/9
f 15/12/12 14/13/13 16/14/14
f 17/15/15 18/16/16 19/17/17
f 17/15/15 19/17/17 15/12/12
f 15/12/12 20/18/18 17/15/15
f 15/12/12 16/14/14 20/18/18
f 11/10/10 13/19/19 14/13/13
f 11/10/10 14/13/13 12/11/11
f 15/12/12 12/11/11 14/13/13
f 15/12/12 10/9/9 12/11/11
f 15/12/12 19/17/17 10/9/9
f 8/7/7 10/9/9 19/17/17
f 8/7/7 19/17/17 18/16/16
f 8/7/7 18/16/16 21/20/20
f 21/20/20 22/21/21 8/7/7
f 21/20/20 23/22/22 22/21/21
f 23/22/22 24/23/23 22/21/21
f 23/22/22 25/24/24 24/23/23
f 26/25/25 24/23/23 25/24/24
f 26/25/25 27/26/26 24/23/23
f 28/27/27 27/26/26 26/25/25
f 28/27/27 29/28/28 27/26/26
f 30/29/29 29/28/28 28/27/27
f 30/29/29 31/30/30 29/28/28
f 32/31/31 27/26/26 29/28/28
f 32/31/31 33/32/32 27/26/26
f 32/31/31 34/33/33 33/32/32
f 33/32/32 34/33/33 35/34/34
f 33/32/32 35/34/34 36/35/35
f 24/23/23 33/32/32 36/35/35
f 24/23/23 27/26/26 33/32/32
f 37/36/36 29/28/28 31/30/30
f 37/36/36 32/31/31 29/28/28
f 37/36/36 38/37/37 32/31/31
f 32/31/31 38/37/37 34/33/33
f 38/37/37 39/38/38 34/33/33
f 34/33/33 39/38/38 40/39/39
f 34/33/33 40/39/39 35/34/34
f 41/40/40 35/34/34 40/39/39
f 41/40/40 42/41/41 35/34/34
f 42/41/41 36/35/35 35/34/34
f 42/41/41 9/8/8 36/35/35
f 9/8/8 24/23/23 36/35/35
f 9/8/8 22/21/21 24/23/23
f 8/7/7 22/21/21 9/8/8
f 38/37/37 43/42/42 39/38/38
f 44/43/43 43/42/42 38/37/37
f 37/36/36 44/43/43 38/37/37
f 31/30/30 45/44/44 46/45/45
f 31/30/30 46/45/45 37/36/36
f 47/46/46 37/36/36 46/45/45
f 47/46/46 44/43/43 37/36/36
f 48/47/47 44/43/43 47/46/46
f 44/43/43 48/47/47 43/42/42
f 48/47/47 49/48/48 43/42/42
f 49/48/48 39/38/38 43/42/42
f 49/48/48 50/49/49 39/38/38
f 40/39/39 39/38/38 50/49/49
f 40/39/39 50/49/49 51/50/50
f 1/51/51 40/39/39 51/50/50
f 1/51/51 41/40/40 40/39/39
f 1/51/51 2/2/2 41/40/40
f 2/2/2 42/41/41 41/40/40
f 2/2/2 4/1/1 42/41/41
f 4/1/1 9/8/8 42/41/41
f 4/1/1 6/5/5 9/8/8
f 48/47/47 52/52/52 49/48/48
f 53/53/53 46/45/45 45/44/44
f 53/53/53 54/54/54 46/45/45
f 47/46/46 46/45/45 54/54/54
f 55/55/55 54/54/54 53/53/53
f 55/55/55 56/56/56 54/54/54
f 56/56/56 57/57/57 54/54/54
f 47/46/46 54/54/54 57/57/57
f 58/58/58 47/46/46 57/57/57
f 48/47/47 47/46/46 58/58/58
f 48/47/47 58/58/58 59/59/59
f 48/47/47 59/59/59 52/52/52
f 60/60/60 52/52/52 59/59/59
f 60/60/60 61/61/61 52/52/52
f 61/61/61 49/48/48 52/52/52
f 61/61/61 62/62/62 49/48/48
f 62/62/62 50/49/49 49/48/48
f 62/62/62 63/63/63 50/49/49
f 63/63/63 51/50/50 50/49/49
f 63/63/63 64/64/64 51/50/50
f 65/65/65 60/60/60 59/59/59
f 65/65/65 59/59/59 66/66/66
f 67/67/67 65/65/65 66/66/66
f 67/67/67 68/68/68 65/65/65
f 69/69/69 70/70/70 71/71/71
f 67/67/67 71/71/71 70/70/70
f 67/67/67 66/66/66 71/71/71
f 56/56/56 69/69/69 57/57/57
f 69/69/69 71/71/71 57/57/57
f 58/58/58 57/57/57 71/71/71
f 71/71/71 59/59/59 58/58/58
f 71/71/71 66/66/66 59/59/59
f 31/30/30 30/29/29 72/72/72
f 31/30/30 72/72/72 45/44/44
f 73/73/73 45/44/44 72/72/72
f 73/73/73 53/53/53 45/44/44
f 74/74/74 53/53/53 73/73/73
f 74/74/74 55/55/55 53/53/53
f 76/75/75 51/50/50 64/64/64
f 76/75/75 1/51/51 51/50/50
f 77/76/76 78/77/77 79/78/78
f 80/79/79 79/78/78 78/77/77
f 81/80/80 79/78/78 80/79/79
f 82/81/81 81/80/80 80/79/79
f 81/80/80 82/81/81 83/82/82
f 80/79/79 78/77/77 84/83/83
f 87/84/84 86/85/85 77/76/76
f 77/76/76 79/78/78 87/84/84
f 88/86/86 87/84/84 79/78/78
f 81/80/80 88/86/86 79/78/78
f 89/87/87 88/86/86 81/80/80
f 81/80/80 83/82/82 89/87/87
f 89/87/87 90/88/88 88/86/86
f 90/88/88 91/89/89 88/86/86
f 88/86/86 91/89/89 87/84/84
f 91/89/89 92/90/90 87/84/84
f 87/84/84 92/90/90 86/85/85
f 85/91/91 86/85/85 92/90/90
f 85/91/91 92/90/90 93/92/92
f 96/93/93 97/94/94 95/95/95
f 96/93/93 98/96/96 97/94/94
f 99/97/97 97/94/94 98/96/96
f 99/97/97 98/96/96 91/89/89
f 90/88/88 99/97/97 91/89/89
f 91/89/89 98/96/96 92/90/90
f 93/92/92 92/90/90 98/96/96
f 93/92/92 98/96/96 96/93/93
f 101/98/98 102/99/99 103/100/100
f 101/98/98 100/101/101 102/99/99
f 104/102/102 101/98/98 103/100/100
f 103/100/100 105/103/103 106/104/104
f 104/102/102 103/100/100 106/104/104
f 107/105/105 104/102/102 106/104/104
f 108/106/106 107/105/105 109/107/107
f 107/105/105 106/104/104 109/107/107
f 106/104/104 110/108/108 109/107/107
f 106/104/104 105/103/103 110/108/108
f 111/109/109 110/108/108 105/103/103
f 111/109/109 112/110/110 110/108/108
f 113/111/111 112/110/110 111/109/109
f 114/112/112 112/110/110 113/111/111
f 115/113/113 114/112/112 113/111/111
f 115/113/113 113/111/111 116/114/114
f 117/115/115 115/113/113 116/114/114
f 114/112/112 118/116/116 112/110/110
f 118/116/116 110/108/108 112/110/110
f 118/116/116 119/117/117 110/108/108
f 119/117/117 109/107/107 110/108/108
f 119/117/117 120/118/118 109/107/107
f 108/106/106 109/107/107 120/118/118
f 113/111/111 111/109/109 121/119/119
f 121/119/119 116/114/114 113/111/111
f 121/119/119 122/120/120 116/114/114
f 75/121/121 84/83/83 78/77/77
f 75/121/121 117/115/115 84/83/83
f 117/115/115 116/114/114 84/83/83
f 116/114/114 80/79/79 84/83/83
f 116/114/114 122/120/120 80/79/79
f 82/81/81 80/79/79 122/120/120
f 121/119/119 82/81/81 122/120/120
f 121/119/119 123/122/122 82/81/81
f 111/109/109 123/122/122 121/119/119
f 111/109/109 124/123/123 123/122/122
f 124/123/123 111/109/109 105/103/103
f 124/123/123 105/103/103 125/124/124
f 103/100/100 125/124/124 105/103/103
f 125/124/124 103/100/100 102/99/99
f 123/122/122 83/82/82 82/81/81
f 123/122/122 126/125/125 83/82/82
f 124/123/123 126/125/125 123/122/122
f 124/123/123 127/126/126 126/125/125
f 127/126/126 124/123/123 125/124/124
f 127/126/126 125/124/124 128/127/127
f 125/124/124 102/99/99 128/127/127
l 94 95
